<?xml version="1.0" encoding="utf-8"?>
<!-- Generator: Adobe Illustrator 19.1.0, SVG Export Plug-In . SVG Version: 6.00 Build 0)  -->
<svg version="1.1" id="Layer_3" xmlns="http://www.w3.org/2000/svg" xmlns:xlink="http://www.w3.org/1999/xlink" x="0px" y="0px"
	 viewBox="0 0 90 90" style="enable-background:new 0 0 90 90;" xml:space="preserve">
<style type="text/css">
	.st0{opacity:0.7;}
	.st1{fill:#06BFD8;}
</style>
<g>
	<g class="st0">
		<path class="st1" d="M65.4,67.5c-0.3,0-0.5,0-0.8-0.2c-19.8-8.1-39.1-0.1-39.3,0c-0.6,0.3-1.3,0.2-1.9-0.2c-0.6-0.4-0.9-1-0.9-1.7
			V54.2c0-0.8,0.4-1.4,1.1-1.8c21.2-10.7,41.8-1.2,42.6-0.8c0.7,0.3,1.1,1,1.1,1.8v12.1c0,0.7-0.3,1.3-0.9,1.7
			C66.2,67.4,65.8,67.5,65.4,67.5z M26.6,55.4v7.2c6-2,20.9-5.6,36.9,0v-7.9C59.1,53,42.9,47.7,26.6,55.4z"/>
	</g>
	<g class="st0">
		<path class="st1" d="M20.7,53.5c-0.3,0-0.6-0.1-0.9-0.2L7.7,46.7c-0.6-0.3-1-1-1.1-1.7c0-0.7,0.4-1.4,1-1.8L44.1,22
			c0.6-0.4,1.4-0.4,2,0l36.3,21.2c0.6,0.4,1,1.1,1,1.8s-0.5,1.4-1.1,1.7l-11.7,5.6c-0.7,0.3-1.4,0.2-2-0.2
			c-24.3-17.5-45.6-0.3-45.9-0.1c0,0-0.1,0.1-0.2,0.1c0,0.1-0.1,0.1-0.1,0.2C22.1,53.1,21.4,53.5,20.7,53.5z M12.7,44.9l7.5,4
			c1.4-1.1,24-18.3,49.7-0.7l7.2-3.4l-32-18.7L12.7,44.9z"/>
	</g>
	<g class="st0">
		<path class="st1" d="M79,67.9c-1.1,0-2-0.9-2-2l-0.4-25.4c-0.9-0.1-1.8,0.2-1.9,0.2c-1,0.4-2.2,0-2.6-1c-0.4-1,0-2.2,1-2.6
			c1.3-0.6,4.1-1.1,6.5,0.4c0.6,0.4,0.9,1,0.9,1.7L81,65.9C81,67,80.1,67.9,79,67.9C79,67.9,79,67.9,79,67.9z"/>
	</g>
	<g>
		<circle class="st1" cx="24.9" cy="65.1" r="2.3"/>
	</g>
	<g>
		<circle class="st1" cx="65.2" cy="65.1" r="2.3"/>
	</g>
	<g>
		<circle class="st1" cx="65.2" cy="53.8" r="2.3"/>
	</g>
	<g>
		<circle class="st1" cx="24.8" cy="54.4" r="2.2"/>
	</g>
	<g>
		<circle class="st1" cx="81" cy="44.8" r="2.3"/>
	</g>
	<g>
		<circle class="st1" cx="69.8" cy="50.2" r="2.3"/>
	</g>
	<g>
		<circle class="st1" cx="20.5" cy="51.1" r="2.3"/>
	</g>
	<g>
		<circle class="st1" cx="9" cy="44.8" r="2.3"/>
	</g>
	<g>
		<circle class="st1" cx="45.3" cy="24.1" r="2.3"/>
	</g>
	<g>
		<circle class="st1" cx="74" cy="39.1" r="2.3"/>
	</g>
	<g>
		<circle class="st1" cx="79" cy="65.9" r="2.3"/>
	</g>
</g>
</svg>
