<svg xmlns="http://www.w3.org/2000/svg" viewBox="0 0 400 400"><defs><style>.cls-1,.cls-2{fill:none;stroke:#00bed8;stroke-linecap:round;stroke-width:12px;opacity:0.7;}.cls-1{stroke-miterlimit:10;}.cls-2{stroke-linejoin:round;}.cls-3{fill:#00bed8;}</style></defs><title>blue-icon</title><g id="Stroke"><path class="cls-1" d="M252.58,200.18A43.11,43.11,0,0,0,209.44,157"/><path class="cls-2" d="M232.68,310.56c-18.6,0-48.77-8-86.8-46-71.07-71.07-39.13-114.8-37.74-116.63a8.78,8.78,0,0,1,.65-.74l10.06-10.06c7.24-7.27,20-7.29,27.31,0l22,21.94a19.39,19.39,0,0,1,0,27.34l-10,10a168.84,168.84,0,0,0,23.19,29.45l3.3,3.32A169,169,0,0,0,214,252.32l10-10a19.81,19.81,0,0,1,27.34,0l22,22a19.33,19.33,0,0,1,0,27.34l-10,10a8.12,8.12,0,0,1-.74.65C261.39,303.12,251.12,310.56,232.68,310.56Z"/><path class="cls-1" d="M306,190.24a86.6,86.6,0,0,0-86.65-86.65"/></g><g id="Fill"><path class="cls-3" d="M123.73,138.15a6.5,6.5,0,1,1-6.5-6.5,6.5,6.5,0,0,1,6.5,6.5"/><path class="cls-3" d="M154.29,138.15a6.5,6.5,0,1,1-6.5-6.5,6.5,6.5,0,0,1,6.5,6.5"/><path class="cls-3" d="M271.62,268.74a6.5,6.5,0,1,1,6.5-6.5,6.5,6.5,0,0,1-6.5,6.5"/><path class="cls-3" d="M271.62,299.3a6.5,6.5,0,1,1,6.5-6.5,6.5,6.5,0,0,1-6.5,6.5"/><path class="cls-3" d="M164.86,196.57a6.5,6.5,0,1,1-6.5-6.5,6.5,6.5,0,0,1,6.5,6.5"/><path class="cls-3" d="M215.94,157a6.5,6.5,0,1,1-6.5-6.5,6.5,6.5,0,0,1,6.5,6.5"/><path class="cls-3" d="M259.08,200.18a6.5,6.5,0,1,1-6.5-6.5,6.5,6.5,0,0,1,6.5,6.5"/><path class="cls-3" d="M220.5,252.12a6.5,6.5,0,1,1-6.5-6.5,6.5,6.5,0,0,1,6.5,6.5"/><path class="cls-3" d="M312.53,190.24a6.5,6.5,0,1,1-6.5-6.5,6.5,6.5,0,0,1,6.5,6.5"/><path class="cls-3" d="M225.88,103.59a6.5,6.5,0,1,1-6.5-6.5,6.5,6.5,0,0,1,6.5,6.5"/></g></svg>