<svg xmlns="http://www.w3.org/2000/svg" viewBox="0 0 400 400"><defs><style>.cls-1{fill:none;stroke:#00bed8;stroke-linecap:round;stroke-linejoin:round;stroke-width:12px;opacity:0.7;}.cls-2{fill:#00bed8;}</style></defs><title>blue-icon</title><g id="Stroke"><path class="cls-1" d="M261.61,328.25V265.18A10.65,10.65,0,0,0,251,254.53H143.57a10.65,10.65,0,0,0-10.65,10.65v63.07"/><path class="cls-1" d="M119.4,163.76s32.39,35.8,40.06,90.77"/><path class="cls-1" d="M276.08,163.76s-32.39,35.8-40.06,90.77"/><path class="cls-1" d="M229.87,102.82s-21.56,97.59-21.45,151.68"/><path class="cls-1" d="M166.59,102.82s18.6,92.76,18.6,151.68"/><circle class="cls-1" cx="109.19" cy="146.88" r="19.52"/><circle class="cls-1" cx="161.88" cy="84.2" r="19.52"/><circle class="cls-1" cx="233.04" cy="83.5" r="19.52"/><circle class="cls-1" cx="287.13" cy="148.78" r="19.52"/></g><g id="Fill"><circle class="cls-2" cx="119.4" cy="163.76" r="6"/><circle class="cls-2" cx="132.92" cy="328.25" r="6"/><circle class="cls-2" cx="166.59" cy="102.82" r="6"/><circle class="cls-2" cx="229.87" cy="102.82" r="6"/><circle class="cls-2" cx="276.08" cy="163.76" r="6"/><circle class="cls-2" cx="236.02" cy="254.5" r="6"/><circle class="cls-2" cx="261.61" cy="328.25" r="6"/><circle class="cls-2" cx="208.42" cy="254.5" r="6"/><circle class="cls-2" cx="185.19" cy="254.5" r="6"/><circle class="cls-2" cx="159.45" cy="254.5" r="6"/></g></svg>