<svg xmlns="http://www.w3.org/2000/svg" viewBox="0 0 400 400"><defs><style>.cls-1{opacity:0.7;}.cls-2{fill:#00bed8;}</style></defs><title>blue-icon</title><g id="Fill"><g class="cls-1"><path class="cls-2" d="M262.42,314.54H141a15.7,15.7,0,0,1-15.64-15.64V99.6A15.7,15.7,0,0,1,141,84H262.73A15.7,15.7,0,0,1,278.37,99.6V299.21A15.92,15.92,0,0,1,262.42,314.54ZM141,95.92a3.73,3.73,0,0,0-3.68,3.68V299.21a3.73,3.73,0,0,0,3.68,3.68H262.73a3.73,3.73,0,0,0,3.68-3.68V99.6a3.73,3.73,0,0,0-3.68-3.68Z"/></g><circle class="cls-2" cx="145.6" cy="89.78" r="5.83"/><circle class="cls-2" cx="131.19" cy="107.53" r="5.83"/><circle class="cls-2" cx="272.24" cy="107.53" r="5.83"/><circle class="cls-2" cx="255.06" cy="89.78" r="5.83"/><circle class="cls-2" cx="272.24" cy="296.73" r="5.83"/><circle class="cls-2" cx="258.44" cy="308.72" r="5.83"/><circle class="cls-2" cx="146.21" cy="308.72" r="5.83"/><circle class="cls-2" cx="131.19" cy="296.73" r="5.83"/><g class="cls-1"><path class="cls-2" d="M152.34,302.89a.66.66,0,0,1-.61-.62V96.54a.61.61,0,1,1,1.23,0v206A1.07,1.07,0,0,0,152.34,302.89Z"/></g><g class="cls-1"><path class="cls-2" d="M164.49,302.89a.66.66,0,0,1-.61-.62V96.54a.61.61,0,1,1,1.23,0v206A1.07,1.07,0,0,1,164.49,302.89Z"/></g><g class="cls-1"><path class="cls-2" d="M176.64,302.89a.66.66,0,0,1-.61-.62V96.54a.61.61,0,1,1,1.23,0v206A1.07,1.07,0,0,1,176.64,302.89Z"/></g><g class="cls-1"><path class="cls-2" d="M188.79,302.89a.66.66,0,0,1-.61-.62V96.54a.61.61,0,1,1,1.23,0v206A1.07,1.07,0,0,1,188.79,302.89Z"/></g><g class="cls-1"><path class="cls-2" d="M200.94,302.89a.66.66,0,0,1-.61-.62V96.54a.61.61,0,1,1,1.23,0v206A1.07,1.07,0,0,1,200.94,302.89Z"/></g><g class="cls-1"><path class="cls-2" d="M213.1,302.89a.66.66,0,0,1-.61-.62V96.54a.61.61,0,1,1,1.23,0v206C213.4,302.58,213.4,302.89,213.1,302.89Z"/></g><g class="cls-1"><path class="cls-2" d="M225.25,302.89a.66.66,0,0,1-.61-.62V96.54a.61.61,0,1,1,1.23,0v206A1.07,1.07,0,0,0,225.25,302.89Z"/></g><g class="cls-1"><path class="cls-2" d="M237.4,302.89a.66.66,0,0,1-.61-.62V96.54a.61.61,0,1,1,1.23,0v206A1.07,1.07,0,0,0,237.4,302.89Z"/></g><g class="cls-1"><path class="cls-2" d="M249.55,302.89a.66.66,0,0,1-.61-.62V96.54a.61.61,0,1,1,1.23,0v206A1.07,1.07,0,0,1,249.55,302.89Z"/></g><g class="cls-1"><path class="cls-2" d="M266.15,140H137.88a.61.61,0,0,1,0-1.23h128a.65.65,0,0,1,.6.61C266.45,139.73,266.45,140,266.15,140Z"/></g><g class="cls-1"><path class="cls-2" d="M265.81,147.7h-128a.61.61,0,0,1,0-1.23h128a.61.61,0,0,1,0,1.23Z"/></g><g class="cls-1"><path class="cls-2" d="M265.81,198.6H137.92a.61.61,0,0,1,0-1.23H265.81a.61.61,0,0,1,0,1.23Z"/></g><g class="cls-1"><path class="cls-2" d="M265.81,204.77H137.92a.61.61,0,0,1,0-1.23H265.81a.61.61,0,0,1,0,1.23Z"/></g><g class="cls-1"><path class="cls-2" d="M265.82,256.56H137.92a.61.61,0,0,1,0-1.23h127.9a.61.61,0,0,1,0,1.23Z"/></g><g class="cls-1"><path class="cls-2" d="M265.82,264.22H137.92a.61.61,0,0,1,0-1.23h127.9a.61.61,0,0,1,0,1.23Z"/></g></g></svg>