<?xml version="1.0" encoding="utf-8"?>
<!-- Generator: Adobe Illustrator 19.1.0, SVG Export Plug-In . SVG Version: 6.00 Build 0)  -->
<svg version="1.1" xmlns="http://www.w3.org/2000/svg" xmlns:xlink="http://www.w3.org/1999/xlink" x="0px" y="0px"
	 viewBox="0 0 90 90" style="enable-background:new 0 0 90 90;" xml:space="preserve">
<style type="text/css">
	.st0{opacity:0.7;}
	.st1{fill:#06BFD8;}
</style>
<g id="icon">
</g>
<g id="Layer_4">
	<g>
		<g class="st0">
			<path class="st1" d="M64.2,74.9H44.8c-1.1,0-2-0.9-2-2s0.9-2,2-2h19.4c1.6,0,3-1.3,3-3V22c0-1.6-1.3-3-3-3H18.3c-1.6,0-3,1.3-3,3
				V68c0,1.6,1.3,3,3,3c1.1,0,2,0.9,2,2s-0.9,2-2,2c-3.8,0-7-3.1-7-7V22c0-3.8,3.1-7,7-7h45.9c3.8,0,7,3.1,7,7V68
				C71.2,71.8,68,74.9,64.2,74.9z"/>
		</g>
		<g>
			<circle class="st1" cx="76.5" cy="18.9" r="2.2"/>
		</g>
		<g>
			<circle class="st1" cx="30.3" cy="43.2" r="2.2"/>
		</g>
		<g>
			<circle class="st1" cx="40.9" cy="54.4" r="2.2"/>
		</g>
		<g>
			<circle class="st1" cx="69.2" cy="67.8" r="1.9"/>
		</g>
		<g>
			<circle class="st1" cx="62.8" cy="17.1" r="1.9"/>
		</g>
		<g>
			<circle class="st1" cx="20.2" cy="17.1" r="1.9"/>
		</g>
		<g>
			<circle class="st1" cx="13.3" cy="24" r="1.9"/>
		</g>
		<g>
			<circle class="st1" cx="62.8" cy="72.9" r="1.9"/>
		</g>
		<g class="st0">
			<path class="st1" d="M40.8,56.4C40.8,56.4,40.8,56.4,40.8,56.4c-0.6,0-1.1-0.2-1.5-0.6L28.8,44.6c-0.8-0.8-0.7-2.1,0.1-2.8
				c0.8-0.8,2.1-0.7,2.8,0.1l9.1,9.7L75,17.5c0.8-0.8,2-0.8,2.8,0c0.8,0.8,0.8,2,0,2.8L42.2,55.8C41.8,56.2,41.3,56.4,40.8,56.4z"/>
		</g>
		<g>
			<path class="st1" d="M42.1,72.9c0-1.1,0.9-2,2-2l0,0c1.1,0,2,0.9,2,2l0,0c0,1.1-0.9,2-2,2l0,0C43,74.9,42.1,74,42.1,72.9z
				 M35.7,72.9c0-1.1,0.9-2,2-2l0,0c1.1,0,2,0.9,2,2l0,0c0,1.1-0.9,2-2,2l0,0C36.6,74.9,35.7,74,35.7,72.9z M29.3,72.9
				c0-1.1,0.9-2,2-2l0,0c1.1,0,2,0.9,2,2l0,0c0,1.1-0.9,2-2,2l0,0C30.2,74.9,29.3,74,29.3,72.9z M22.8,72.9c0-1.1,0.9-2,2-2l0,0
				c1.1,0,2,0.9,2,2l0,0c0,1.1-0.9,2-2,2l0,0C23.7,74.9,22.8,74,22.8,72.9z M16.4,72.9c0-1.1,0.9-2,2-2l0,0c1.1,0,2,0.9,2,2l0,0
				c0,1.1-0.9,2-2,2l0,0C17.3,74.9,16.4,74,16.4,72.9z"/>
		</g>
	</g>
</g>
</svg>
