<?xml version="1.0" encoding="utf-8"?>
<!-- Generator: Adobe Illustrator 19.1.0, SVG Export Plug-In . SVG Version: 6.00 Build 0)  -->
<svg version="1.1" xmlns="http://www.w3.org/2000/svg" xmlns:xlink="http://www.w3.org/1999/xlink" x="0px" y="0px"
	 viewBox="0 0 90 90" style="enable-background:new 0 0 90 90;" xml:space="preserve">
<style type="text/css">
	.st0{opacity:0.7;}
	.st1{fill:#06BFD8;}
	.st2{display:none;}
	.st3{display:inline;opacity:0.29;}
	.st4{fill:none;stroke:#FFFFFF;stroke-width:0.25;stroke-miterlimit:10;}
	.st5{fill:none;stroke:#FFFFFF;stroke-width:0.25;stroke-miterlimit:10;stroke-dasharray:3.01,3.01;}
	.st6{fill:none;stroke:#FFFFFF;stroke-width:0.25;stroke-miterlimit:10;stroke-dasharray:3,3;}
	.st7{display:inline;opacity:0.29;fill:#FFFFFF;}
	.st8{font-family:'MyriadPro-Regular';}
	.st9{font-size:6.0202px;}
</style>
<g id="icon">
	<g class="st0">
		<path class="st1" d="M46.8,75.5c-0.1,0-0.2,0-0.3,0c-0.6-0.1-1.1-0.5-1.4-1l-5.5-9.9h-8.6c-0.9,0-1.7-0.6-1.9-1.4l-3.1-10.7
			l-2.5-4c-0.3-0.6-0.4-1.3-0.1-1.9l2.4-5.6c-1-10.6,1.3-18.4,6.8-23c9-7.5,22.9-3.7,23.5-3.6c0.1,0,0.3,0.1,0.4,0.1
			c8.7,4.5,13.8,10.2,15.2,17c1.4,7.1-1.3,15.1-7.9,23l-0.2,0.2c-0.7,0.9-0.1,3,0.3,3.7c0.4,0.8,0.2,1.7-0.4,2.3L48.1,75
			C47.8,75.3,47.3,75.5,46.8,75.5z M32.4,60.6h8.3c0.7,0,1.4,0.4,1.7,1l4.9,8.7l12.3-11.6c-0.5-1.7-0.9-4.5,0.8-6.5l0.2-0.3
			c5.8-6.9,8.2-13.7,7-19.6c-1.1-5.5-5.5-10.2-12.9-14.1C53.1,17.8,41.8,15.2,35,21c-4.5,3.8-6.3,10.5-5.3,20c0,0.3,0,0.7-0.2,1
			l-2.2,5.1l2.1,3.4c0.1,0.2,0.2,0.3,0.2,0.5L32.4,60.6z"/>
	</g>
	<g>
		<g class="st0">
			<path class="st1" d="M42.5,34.9c-2.3,0-4.1-1.9-4.1-4.2s1.8-4.2,4.1-4.2s4.1,1.9,4.1,4.2S44.8,34.9,42.5,34.9z M42.5,27.8
				c-1.6,0-2.8,1.3-2.8,2.9s1.3,2.9,2.8,2.9s2.8-1.3,2.8-2.9S44.1,27.8,42.5,27.8z"/>
		</g>
		<g class="st0">
			<path class="st1" d="M43.6,42h-1.9c-0.3,0-0.5-0.2-0.6-0.4l-1-2.7l-1.2-0.6l-2.5,1.3c-0.3,0.1-0.6,0.1-0.8-0.1l-1.5-1.6
				c-0.2-0.2-0.2-0.5-0.1-0.7l1.1-2.4l-0.7-1.5l-2.4-0.8c-0.3-0.1-0.4-0.3-0.4-0.6v-2.1c0-0.3,0.2-0.5,0.4-0.6l2.5-0.8l0.6-1.5
				l-1.2-2.3c-0.1-0.2-0.1-0.6,0.1-0.8l1.6-1.6c0.2-0.2,0.5-0.2,0.8-0.1l2,1.2l1.8-0.7l0.7-2.5c0.1-0.3,0.3-0.5,0.6-0.5h2.1
				c0.3,0,0.5,0.2,0.6,0.4l1,2.8l1.2,0.7l2.3-1.3c0.2-0.1,0.6-0.1,0.8,0.1l1.5,1.5c0.2,0.2,0.2,0.5,0.1,0.7l-1.1,2.4l0.4,1.4
				l2.5,0.8c0.3,0.1,0.4,0.3,0.4,0.6v2.2c0,0.3-0.2,0.5-0.5,0.6l-2.4,0.7l-0.6,1.4L51,37c0.1,0.2,0.1,0.5-0.1,0.7l-1.4,1.4
				c-0.2,0.2-0.5,0.2-0.7,0.1l-2.1-1.1L44.9,39l-0.6,2.5C44.2,41.8,43.9,42,43.6,42z M42.2,40.7h0.9l0.6-2.3c0-0.2,0.2-0.3,0.3-0.4
				l2.3-1.1c0.2-0.1,0.4-0.1,0.6,0l1.9,1l0.8-0.8l-1.1-2.3c-0.1-0.2-0.1-0.4,0-0.5l0.9-1.9c0.1-0.2,0.2-0.3,0.4-0.3l2.2-0.7v-1.3
				l-2.4-0.7c-0.2-0.1-0.4-0.2-0.4-0.4L48.7,27c0-0.2,0-0.3,0-0.5l1-2.2l-0.9-0.8l-2.1,1.2c-0.2,0.1-0.4,0.1-0.6,0l-1.7-0.9
				c-0.1-0.1-0.2-0.2-0.3-0.3l-0.9-2.6H42l-0.7,2.3c-0.1,0.2-0.2,0.3-0.4,0.4l-2.3,1c-0.2,0.1-0.4,0.1-0.6,0l-1.9-1.1l-0.9,0.9
				l1.1,2.2c0.1,0.2,0.1,0.4,0,0.5l-0.8,2.1c-0.1,0.2-0.2,0.3-0.4,0.4l-2.3,0.8v1.2l2.2,0.7c0.2,0.1,0.3,0.2,0.4,0.3l0.9,2
				c0.1,0.2,0.1,0.4,0,0.5l-1.1,2.3l0.9,0.9l2.4-1.3c0.2-0.1,0.4-0.1,0.6,0l1.8,0.8c0.2,0.1,0.3,0.2,0.3,0.4L42.2,40.7z"/>
		</g>
		<g>
			<circle class="st1" cx="36.1" cy="22.7" r="0.7"/>
		</g>
		<g>
			<circle class="st1" cx="34.5" cy="24.4" r="0.7"/>
		</g>
		<g>
			<circle class="st1" cx="43.6" cy="20.3" r="0.7"/>
		</g>
		<g>
			<circle class="st1" cx="41.5" cy="20.3" r="0.7"/>
		</g>
		<g>
			<circle class="st1" cx="48.9" cy="22.7" r="0.7"/>
		</g>
		<g>
			<circle class="st1" cx="50.5" cy="24.2" r="0.7"/>
		</g>
		<g>
			<circle class="st1" cx="52.8" cy="29.7" r="0.7"/>
		</g>
		<g>
			<circle class="st1" cx="52.8" cy="31.8" r="0.7"/>
		</g>
		<g>
			<circle class="st1" cx="50.4" cy="37.3" r="0.7"/>
		</g>
		<g>
			<circle class="st1" cx="49" cy="38.6" r="0.7"/>
		</g>
		<g>
			<circle class="st1" cx="43.6" cy="41.3" r="0.7"/>
		</g>
		<g>
			<circle class="st1" cx="41.8" cy="41.3" r="0.7"/>
		</g>
		<g>
			<circle class="st1" cx="36.1" cy="39" r="0.7"/>
		</g>
		<g>
			<circle class="st1" cx="34.6" cy="37.4" r="0.7"/>
		</g>
		<g>
			<circle class="st1" cx="32.3" cy="32" r="0.7"/>
		</g>
		<g>
			<circle class="st1" cx="32.3" cy="29.9" r="0.7"/>
		</g>
	</g>
	<g>
		<g class="st0">
			<path class="st1" d="M59.4,34.5c-1,0-1.9-0.8-1.9-1.9s0.8-1.9,1.9-1.9s1.9,0.8,1.9,1.9S60.4,34.5,59.4,34.5z M59.4,31.3
				c-0.7,0-1.3,0.6-1.3,1.3s0.6,1.3,1.3,1.3s1.3-0.6,1.3-1.3S60.1,31.3,59.4,31.3z"/>
		</g>
		<g class="st0">
			<path class="st1" d="M59.9,37.7H59c-0.1,0-0.2-0.1-0.3-0.2l-0.4-1.2L57.7,36l-1.1,0.6c-0.1,0.1-0.3,0-0.3-0.1l-0.7-0.7
				c-0.1-0.1-0.1-0.2-0.1-0.3l0.5-1.1l-0.3-0.7l-1.1-0.3c-0.1,0-0.2-0.1-0.2-0.3v-1c0-0.1,0.1-0.2,0.2-0.3l1.1-0.4l0.3-0.7l-0.6-1.1
				c-0.1-0.1,0-0.3,0.1-0.3l0.7-0.7c0.1-0.1,0.2-0.1,0.3,0l0.9,0.5l0.8-0.3l0.3-1.1c0-0.1,0.1-0.2,0.3-0.2h0.9
				c0.1,0,0.2,0.1,0.3,0.2l0.4,1.2l0.5,0.3l1-0.6c0.1-0.1,0.3,0,0.3,0l0.7,0.7c0.1,0.1,0.1,0.2,0.1,0.3l-0.5,1.1l0.2,0.6l1.2,0.4
				c0.1,0,0.2,0.1,0.2,0.3v1c0,0.1-0.1,0.2-0.2,0.3L63,33.8l-0.3,0.6l0.5,1.1c0,0.1,0,0.2-0.1,0.3l-0.6,0.6
				c-0.1,0.1-0.2,0.1-0.3,0.1L61.2,36l-0.8,0.4l-0.3,1.1C60.1,37.6,60,37.7,59.9,37.7z M59.2,37.1h0.4l0.3-1c0-0.1,0.1-0.2,0.2-0.2
				l1.1-0.5c0.1,0,0.2,0,0.3,0l0.9,0.5l0.3-0.3l-0.5-1.1c0-0.1,0-0.2,0-0.2l0.4-0.9c0-0.1,0.1-0.1,0.2-0.2l1-0.3v-0.6L62.6,32
				c-0.1,0-0.2-0.1-0.2-0.2L62.1,31c0-0.1,0-0.1,0-0.2l0.5-1l-0.4-0.4l-1,0.6c-0.1,0.1-0.2,0.1-0.3,0l-0.8-0.4
				c-0.1,0-0.1-0.1-0.1-0.2l-0.4-1.2h-0.5l-0.3,1c0,0.1-0.1,0.1-0.2,0.2l-1.1,0.4c-0.1,0-0.2,0-0.3,0l-0.8-0.5l-0.4,0.4l0.5,1
				c0,0.1,0,0.2,0,0.2l-0.4,0.9c0,0.1-0.1,0.1-0.2,0.2L55,32.4V33l1,0.3c0.1,0,0.1,0.1,0.2,0.2l0.4,0.9c0,0.1,0,0.2,0,0.2l-0.5,1
				l0.4,0.4l1.1-0.6c0.1,0,0.2,0,0.3,0l0.8,0.4c0.1,0,0.1,0.1,0.2,0.2L59.2,37.1z"/>
		</g>
		<g>
			<circle class="st1" cx="56.5" cy="29" r="0.3"/>
		</g>
		<g>
			<circle class="st1" cx="55.7" cy="29.8" r="0.3"/>
		</g>
		<g>
			<circle class="st1" cx="59.8" cy="27.9" r="0.3"/>
		</g>
		<g>
			<circle class="st1" cx="58.9" cy="27.9" r="0.3"/>
		</g>
		<g>
			<circle class="st1" cx="62.3" cy="29" r="0.3"/>
		</g>
		<g>
			<circle class="st1" cx="63" cy="29.7" r="0.3"/>
		</g>
		<g>
			<circle class="st1" cx="64" cy="32.2" r="0.3"/>
		</g>
		<g>
			<circle class="st1" cx="64" cy="33.1" r="0.3"/>
		</g>
		<g>
			<circle class="st1" cx="62.9" cy="35.6" r="0.3"/>
		</g>
		<g>
			<circle class="st1" cx="62.3" cy="36.2" r="0.3"/>
		</g>
		<g>
			<circle class="st1" cx="59.9" cy="37.4" r="0.3"/>
		</g>
		<g>
			<circle class="st1" cx="59.1" cy="37.4" r="0.3"/>
		</g>
		<g>
			<circle class="st1" cx="56.5" cy="36.4" r="0.3"/>
		</g>
		<g>
			<circle class="st1" cx="55.8" cy="35.7" r="0.3"/>
		</g>
		<g>
			<circle class="st1" cx="54.7" cy="33.2" r="0.3"/>
		</g>
		<g>
			<circle class="st1" cx="54.7" cy="32.3" r="0.3"/>
		</g>
	</g>
	<g>
		<g class="st0">
			<path class="st1" d="M54.4,49.6c-1.5,0-2.8-1.3-2.8-2.8s1.2-2.8,2.8-2.8s2.8,1.3,2.8,2.8S56,49.6,54.4,49.6z M54.4,44.9
				c-1.1,0-1.9,0.9-1.9,2s0.9,2,1.9,2s1.9-0.9,1.9-2S55.5,44.9,54.4,44.9z"/>
		</g>
		<g class="st0">
			<path class="st1" d="M55.2,54.4h-1.3c-0.2,0-0.3-0.1-0.4-0.3l-0.7-1.9L52,51.9l-1.7,0.9c-0.2,0.1-0.4,0.1-0.5-0.1l-1-1.1
				c-0.1-0.1-0.2-0.3-0.1-0.5l0.8-1.6l-0.4-1l-1.6-0.5c-0.2-0.1-0.3-0.2-0.3-0.4v-1.5c0-0.2,0.1-0.3,0.3-0.4l1.7-0.6l0.4-1l-0.8-1.6
				c-0.1-0.2-0.1-0.4,0.1-0.5l1.1-1.1c0.1-0.1,0.3-0.2,0.5-0.1l1.4,0.8l1.2-0.5l0.5-1.7c0.1-0.2,0.2-0.3,0.4-0.3h1.4
				c0.2,0,0.3,0.1,0.4,0.3l0.7,1.9l0.8,0.4l1.5-0.9c0.2-0.1,0.4-0.1,0.5,0.1l1,1c0.1,0.1,0.2,0.3,0.1,0.5l-0.8,1.6l0.3,0.9l1.7,0.5
				c0.2,0.1,0.3,0.2,0.3,0.4v1.5c0,0.2-0.1,0.4-0.3,0.4l-1.6,0.5l-0.4,0.9l0.8,1.7c0.1,0.2,0,0.4-0.1,0.5l-1,1
				c-0.1,0.1-0.3,0.2-0.5,0.1l-1.4-0.7L56,52.5l-0.4,1.7C55.5,54.3,55.4,54.4,55.2,54.4z M54.2,53.6h0.6l0.4-1.5
				c0-0.1,0.1-0.2,0.2-0.3L57,51c0.1-0.1,0.3-0.1,0.4,0l1.3,0.7l0.5-0.5l-0.7-1.6c-0.1-0.1-0.1-0.2,0-0.4l0.6-1.3
				c0.1-0.1,0.1-0.2,0.3-0.2l1.5-0.5v-0.9l-1.6-0.5c-0.1,0-0.2-0.1-0.3-0.3l-0.4-1.3c0-0.1,0-0.2,0-0.3l0.7-1.5l-0.6-0.6l-1.5,0.8
				c-0.1,0.1-0.3,0.1-0.4,0l-1.2-0.6c-0.1-0.1-0.2-0.1-0.2-0.2l-0.6-1.7h-0.8l-0.5,1.6c0,0.1-0.1,0.2-0.2,0.3l-1.6,0.7
				c-0.1,0.1-0.3,0-0.4,0l-1.3-0.7l-0.6,0.6l0.8,1.5c0.1,0.1,0.1,0.2,0,0.4l-0.5,1.4c0,0.1-0.1,0.2-0.3,0.3l-1.6,0.5v0.8l1.5,0.5
				c0.1,0,0.2,0.1,0.3,0.2l0.6,1.3c0.1,0.1,0.1,0.2,0,0.4l-0.7,1.5l0.6,0.6l1.6-0.9c0.1-0.1,0.3-0.1,0.4,0l1.2,0.5
				c0.1,0,0.2,0.1,0.2,0.2L54.2,53.6z"/>
		</g>
		<g>
			<circle class="st1" cx="50.1" cy="41.4" r="0.5"/>
		</g>
		<g>
			<circle class="st1" cx="49" cy="42.5" r="0.5"/>
		</g>
		<g>
			<circle class="st1" cx="55.1" cy="39.7" r="0.5"/>
		</g>
		<g>
			<circle class="st1" cx="53.7" cy="39.7" r="0.5"/>
		</g>
		<g>
			<circle class="st1" cx="58.8" cy="41.4" r="0.5"/>
		</g>
		<g>
			<circle class="st1" cx="59.8" cy="42.4" r="0.5"/>
		</g>
		<g>
			<circle class="st1" cx="61.4" cy="46.1" r="0.5"/>
		</g>
		<g>
			<circle class="st1" cx="61.4" cy="47.6" r="0.5"/>
		</g>
		<g>
			<circle class="st1" cx="59.7" cy="51.3" r="0.5"/>
		</g>
		<g>
			<circle class="st1" cx="58.8" cy="52.2" r="0.5"/>
		</g>
		<g>
			<circle class="st1" cx="55.2" cy="54" r="0.5"/>
		</g>
		<g>
			<circle class="st1" cx="54" cy="54" r="0.5"/>
		</g>
		<g>
			<circle class="st1" cx="50.1" cy="52.4" r="0.5"/>
		</g>
		<g>
			<circle class="st1" cx="49.1" cy="51.4" r="0.5"/>
		</g>
		<g>
			<circle class="st1" cx="47.5" cy="47.7" r="0.5"/>
		</g>
		<g>
			<circle class="st1" cx="47.5" cy="46.3" r="0.5"/>
		</g>
	</g>
	<g>
		<circle class="st1" cx="30.9" cy="62.5" r="1.6"/>
	</g>
	<g>
		<circle class="st1" cx="47" cy="73.5" r="1.6"/>
	</g>
	<g>
		<circle class="st1" cx="62" cy="59.1" r="1.6"/>
	</g>
	<g>
		<circle class="st1" cx="25" cy="47.2" r="1.6"/>
	</g>
	<g>
		<circle class="st1" cx="27.7" cy="40.6" r="1.6"/>
	</g>
</g>
<g id="_x2A_delete_when_export_x2A__guide" class="st2">
	<g class="st3">
		<g>
			<polyline class="st4" points="84.1,82.5 84.1,84 82.6,84 			"/>
			<line class="st5" x1="79.6" y1="84" x2="8.9" y2="84"/>
			<polyline class="st4" points="7.4,84 5.9,84 5.9,82.5 			"/>
			<line class="st6" x1="5.9" y1="79.5" x2="5.9" y2="9"/>
			<polyline class="st4" points="5.9,7.5 5.9,6 7.4,6 			"/>
			<line class="st5" x1="10.4" y1="6" x2="81.1" y2="6"/>
			<polyline class="st4" points="82.6,6 84.1,6 84.1,7.5 			"/>
			<line class="st6" x1="84.1" y1="10.5" x2="84.1" y2="81"/>
		</g>
	</g>
	<text transform="matrix(1 0 0 1 32.5 45)" class="st7 st8 st9">SAFE ZONE</text>
</g>
</svg>
