<svg xmlns="http://www.w3.org/2000/svg" viewBox="0 0 400 400"><defs><style>.cls-1{fill:none;stroke:#00bed8;stroke-linecap:round;stroke-linejoin:round;stroke-width:12px;opacity:0.7;}.cls-2{fill:#00bed8;}</style></defs><title>blue-icon</title><g id="Stroke"><line class="cls-1" x1="74.37" y1="172.24" x2="107.3" y2="172.24"/><line class="cls-1" x1="74.37" y1="190.74" x2="107.3" y2="190.74"/><line class="cls-1" x1="74.37" y1="209.98" x2="107.3" y2="209.98"/><line class="cls-1" x1="74.37" y1="228.48" x2="107.3" y2="228.48"/><line class="cls-1" x1="74.37" y1="245.13" x2="107.3" y2="245.13"/><line class="cls-1" x1="99.38" y1="130.42" x2="110.48" y2="130.42"/><line class="cls-1" x1="190.43" y1="187.87" x2="223.36" y2="187.87"/><line class="cls-1" x1="190.43" y1="206.37" x2="223.36" y2="206.37"/><line class="cls-1" x1="190.43" y1="225.61" x2="223.36" y2="225.61"/><line class="cls-1" x1="190.43" y1="244.11" x2="223.36" y2="244.11"/><line class="cls-1" x1="190.43" y1="260.77" x2="223.36" y2="260.77"/><rect class="cls-1" x="52.72" y="111.92" width="76.23" height="159.85"/><rect class="cls-1" x="147.54" y="93.05" width="98.06" height="195.38"/><rect class="cls-1" x="264.12" y="111.92" width="76.23" height="159.85"/><polyline class="cls-1" points="88.77 273.75 88.77 309.77 302.24 309.77 302.24 271.78"/><line class="cls-1" x1="196.57" y1="288.43" x2="196.57" y2="309.77"/><line class="cls-1" x1="286.91" y1="180.32" x2="319.85" y2="180.32"/><line class="cls-1" x1="286.91" y1="198.82" x2="319.85" y2="198.82"/><line class="cls-1" x1="286.91" y1="218.06" x2="319.85" y2="218.06"/><line class="cls-1" x1="286.91" y1="236.56" x2="319.85" y2="236.56"/><line class="cls-1" x1="286.91" y1="253.21" x2="319.85" y2="253.21"/><line class="cls-1" x1="215.44" y1="146.06" x2="226.54" y2="146.06"/><line class="cls-1" x1="311.92" y1="138.5" x2="323.02" y2="138.5"/></g><g id="Fill"><circle class="cls-2" cx="110.48" cy="130.42" r="6"/><circle class="cls-2" cx="118.67" cy="111.92" r="6"/><circle class="cls-2" cx="128.95" cy="124.51" r="6"/><circle class="cls-2" cx="64.81" cy="111.92" r="6"/><circle class="cls-2" cx="52.72" cy="125.83" r="6"/><circle class="cls-2" cx="107.3" cy="172.24" r="6"/><circle class="cls-2" cx="74.37" cy="172.24" r="6"/><circle class="cls-2" cx="107.3" cy="190.74" r="6"/><circle class="cls-2" cx="74.37" cy="190.74" r="6"/><circle class="cls-2" cx="107.3" cy="209.98" r="6"/><circle class="cls-2" cx="74.37" cy="209.98" r="6"/><circle class="cls-2" cx="107.3" cy="228.48" r="6"/><circle class="cls-2" cx="74.37" cy="228.48" r="6"/><circle class="cls-2" cx="107.3" cy="245.13" r="6"/><circle class="cls-2" cx="74.37" cy="245.13" r="6"/><circle class="cls-2" cx="128.95" cy="260.92" r="6"/><circle class="cls-2" cx="118.22" cy="271.78" r="6"/><circle class="cls-2" cx="88.77" cy="271.82" r="6"/><circle class="cls-2" cx="64.5" cy="271.78" r="6"/><circle class="cls-2" cx="52.72" cy="260.92" r="6"/><circle class="cls-2" cx="196.57" cy="309.77" r="6"/><circle class="cls-2" cx="88.77" cy="309.77" r="6"/><circle class="cls-2" cx="302.24" cy="309.77" r="4.59"/><circle class="cls-2" cx="323.02" cy="138.5" r="6"/><circle class="cls-2" cx="319.85" cy="180.32" r="6"/><circle class="cls-2" cx="319.85" cy="198.82" r="6"/><circle class="cls-2" cx="319.85" cy="218.06" r="6"/><circle class="cls-2" cx="319.85" cy="236.56" r="6"/><circle class="cls-2" cx="319.85" cy="253.21" r="6"/><circle class="cls-2" cx="286.47" cy="180.15" r="6"/><circle class="cls-2" cx="286.47" cy="198.65" r="6"/><circle class="cls-2" cx="286.47" cy="217.89" r="6"/><circle class="cls-2" cx="286.47" cy="236.39" r="6"/><circle class="cls-2" cx="286.47" cy="253.04" r="6"/><circle class="cls-2" cx="226.54" cy="146.06" r="6"/><circle class="cls-2" cx="223.36" cy="187.87" r="6"/><circle class="cls-2" cx="223.36" cy="206.37" r="6"/><circle class="cls-2" cx="223.36" cy="225.61" r="6"/><circle class="cls-2" cx="223.36" cy="244.11" r="6"/><circle class="cls-2" cx="223.36" cy="260.77" r="6"/><circle class="cls-2" cx="189.98" cy="187.7" r="6"/><circle class="cls-2" cx="189.98" cy="206.2" r="6"/><circle class="cls-2" cx="189.98" cy="225.44" r="6"/><circle class="cls-2" cx="189.98" cy="243.94" r="6"/><circle class="cls-2" cx="189.98" cy="260.6" r="6"/><circle class="cls-2" cx="330" cy="111.92" r="6"/><circle class="cls-2" cx="340.35" cy="123.03" r="6"/><circle class="cls-2" cx="264.12" cy="123.03" r="6"/><circle class="cls-2" cx="275.2" cy="111.92" r="6"/><circle class="cls-2" cx="340.35" cy="258.99" r="6"/><circle class="cls-2" cx="331.16" cy="271.78" r="6"/><circle class="cls-2" cx="302.24" cy="271.78" r="6"/><circle class="cls-2" cx="273.69" cy="271.78" r="6"/><circle class="cls-2" cx="264.12" cy="258.99" r="6"/><circle class="cls-2" cx="196.57" cy="288.43" r="6"/><circle class="cls-2" cx="245.6" cy="278.41" r="6"/><circle class="cls-2" cx="236.41" cy="288.43" r="6"/><circle class="cls-2" cx="159.64" cy="288.43" r="6"/><circle class="cls-2" cx="147.54" cy="278.41" r="6"/><circle class="cls-2" cx="245.6" cy="104.12" r="6"/><circle class="cls-2" cx="234.5" cy="93.05" r="6"/><circle class="cls-2" cx="160.86" cy="93.05" r="6"/><circle class="cls-2" cx="147.54" cy="104.12" r="6"/></g></svg>