<svg xmlns="http://www.w3.org/2000/svg" viewBox="0 0 400 400"><defs><style>.cls-1{fill:none;stroke:#00bed8;stroke-linecap:round;stroke-miterlimit:10;stroke-width:12px;opacity:0.7;}.cls-2,.cls-3{fill:#00bed8;}.cls-2{opacity:0.9;}</style></defs><title>blue-icon</title><g id="Stroke"><path class="cls-1" d="M177.46,136a44.5,44.5,0,1,1-82,0"/><path class="cls-1" d="M41.71,292.73a94.89,94.89,0,1,1,189.77,0"/><path class="cls-1" d="M304.46,136a44.5,44.5,0,1,1-82,0"/><path class="cls-1" d="M168.71,292.73a94.89,94.89,0,1,1,189.77,0"/></g><g id="Fill"><circle class="cls-2" cx="41.71" cy="292.73" r="6"/><circle class="cls-2" cx="95.45" cy="136" r="6"/><circle class="cls-2" cx="177.44" cy="136" r="6"/><circle class="cls-2" cx="231.48" cy="292.73" r="6"/><path class="cls-3" d="M129.72,108.5a6.75,6.75,0,0,1,6.75-6.75h0a6.75,6.75,0,0,1,6.75,6.75h0a6.75,6.75,0,0,1-6.75,6.75h0A6.75,6.75,0,0,1,129.72,108.5Z"/><path class="cls-3" d="M155.26,120.25h0a6.75,6.75,0,0,1-2.48-9.22h0a6.74,6.74,0,0,1,9.21-2.48h0a6.73,6.73,0,0,1,2.48,9.21h0a6.73,6.73,0,0,1-5.85,3.39h0A6.64,6.64,0,0,1,155.26,120.25Z"/><path class="cls-3" d="M108.46,117.76a6.75,6.75,0,0,1,2.48-9.22h0a6.75,6.75,0,0,1,9.22,2.49h0a6.74,6.74,0,0,1-2.48,9.21h0a6.7,6.7,0,0,1-3.36.9h0A6.74,6.74,0,0,1,108.46,117.76Z"/><circle class="cls-2" cx="168.71" cy="292.73" r="6"/><circle class="cls-2" cx="222.45" cy="136" r="6"/><circle class="cls-2" cx="304.44" cy="136" r="6"/><circle class="cls-2" cx="358.48" cy="292.73" r="6"/><path class="cls-3" d="M256.72,108.5a6.75,6.75,0,0,1,6.75-6.75h0a6.75,6.75,0,0,1,6.75,6.75h0a6.75,6.75,0,0,1-6.75,6.75h0A6.75,6.75,0,0,1,256.72,108.5Z"/><path class="cls-3" d="M282.26,120.25h0a6.75,6.75,0,0,1-2.48-9.22h0a6.74,6.74,0,0,1,9.21-2.48h0a6.73,6.73,0,0,1,2.48,9.21h0a6.73,6.73,0,0,1-5.85,3.39h0A6.64,6.64,0,0,1,282.26,120.25Z"/><path class="cls-3" d="M235.46,117.76a6.75,6.75,0,0,1,2.48-9.22h0a6.75,6.75,0,0,1,9.22,2.49h0a6.74,6.74,0,0,1-2.48,9.21h0a6.7,6.7,0,0,1-3.36.9h0A6.74,6.74,0,0,1,235.46,117.76Z"/></g></svg>