<svg xmlns="http://www.w3.org/2000/svg" viewBox="0 0 400 400"><defs><style>.cls-1{fill:none;stroke:#00bed8;stroke-linecap:round;stroke-linejoin:round;stroke-width:12px;opacity:0.7;}.cls-2{fill:#00bed8;}</style></defs><title>blue-icon</title><g id="Stroke"><line class="cls-1" x1="200.8" y1="101.48" x2="254.78" y2="101.48"/><line class="cls-1" x1="254.78" y1="101.48" x2="204.8" y2="177.33"/><line class="cls-1" x1="204.8" y1="177.33" x2="253.29" y2="177.33"/><line class="cls-1" x1="253.29" y1="177.33" x2="153.87" y2="304.56"/><line class="cls-1" x1="200.8" y1="101.48" x2="157.87" y2="205.36"/><line class="cls-1" x1="157.87" y1="205.36" x2="195.02" y2="205.36"/><line class="cls-1" x1="195.02" y1="205.36" x2="153.87" y2="304.56"/><path class="cls-1" d="M139.19,269.7c-21.17-14.74-36-39.91-36-70.12,0-41.23,28.77-76.22,62.79-83.06"/><path class="cls-1" d="M260.54,132.63a86.13,86.13,0,0,1,31.83,66.94c0,47.66-38.85,86.3-91.34,86.3"/></g><g id="Fill"><circle class="cls-2" cx="254.78" cy="101.48" r="6"/><circle class="cls-2" cx="260.67" cy="132.63" r="6"/><circle class="cls-2" cx="201.03" cy="285.88" r="6"/><circle class="cls-2" cx="204.8" cy="177.33" r="6"/><circle class="cls-2" cx="253.29" cy="177.33" r="6"/><circle class="cls-2" cx="153.87" cy="304.56" r="6"/><circle class="cls-2" cx="195.02" cy="205.36" r="6"/><circle class="cls-2" cx="157.87" cy="205.36" r="6"/><circle class="cls-2" cx="200.8" cy="101.48" r="6"/><circle class="cls-2" cx="165.97" cy="116.52" r="6"/><circle class="cls-2" cx="139.19" cy="269.7" r="6"/></g></svg>