<svg xmlns="http://www.w3.org/2000/svg" viewBox="0 0 400 400"><defs><style>.cls-1,.cls-2{fill:none;stroke:#00bed8;stroke-linecap:round;stroke-width:12px;}.cls-1{stroke-linejoin:round;opacity:0.7;}.cls-2{stroke-miterlimit:10;stroke-dasharray:0 22.4;}.cls-3{fill:#00bed8;}</style></defs><title>blue-icon</title><g id="Stroke"><rect class="cls-1" x="108" y="197.66" width="45.98" height="91.02"/><path class="cls-1" d="M220.52,295.09c36.54,1.3,68.68-3.25,61.55-28.45,0,0,13-3.3,7.43-30.38,0,0,13.87-18.1,2.33-33.58,0,0,25.84-52.39-63-30.34,0,0,13.78-44,4.38-66.82-4.36-10.56-20-9-23.18,2-1.36,4.72-4,10.87-8.62,18.86-16.89,29.09-44.57,71.32-47.39,71.32"/><path class="cls-2" d="M154,288.3s23.63,6.93,69.15,6.83"/></g><g id="Fill"><circle class="cls-3" cx="223.12" cy="98.37" r="6"/><circle class="cls-3" cx="153.98" cy="197.66" r="6"/><circle class="cls-3" cx="291.9" cy="202.83" r="6"/><circle class="cls-3" cx="289.46" cy="236.34" r="6"/><circle class="cls-3" cx="282.09" cy="266.59" r="6"/><circle class="cls-3" cx="228.79" cy="171.88" r="6"/><circle class="cls-3" cx="108" cy="197.66" r="6"/><circle class="cls-3" cx="109.16" cy="287.72" r="6"/></g></svg>