<svg xmlns="http://www.w3.org/2000/svg" viewBox="0 0 400 400"><defs><style>.cls-1,.cls-2{fill:none;stroke:#00bed8;stroke-linecap:round;stroke-width:12px;}.cls-1{stroke-linejoin:round;opacity:0.7;}.cls-2{stroke-miterlimit:10;stroke-dasharray:0 19;}.cls-3{fill:#00bed8;}</style></defs><title>blue-icon</title><g id="Stroke"><polyline class="cls-1" points="234 159.25 234 85.88 156 85.88"/><polyline class="cls-1" points="129.75 118.18 129.75 222.78 170.05 222.78"/><polygon class="cls-1" points="129.75 118.18 156 118.18 156 85.88 129.75 118.18"/><polyline class="cls-1" points="274.3 224.57 274.3 159.25 196.29 159.25"/><polyline class="cls-1" points="170.05 191.54 170.05 296.15 274.3 296.15 274.3 281.96"/><polygon class="cls-1" points="170.05 191.54 196.29 191.54 196.29 159.25 170.05 191.54"/><line class="cls-2" x1="274.3" y1="224.57" x2="274.3" y2="287.5"/></g><g id="Fill"><circle class="cls-3" cx="129.75" cy="118.18" r="6" transform="translate(10.59 247.02) rotate(-89.56)"/><circle class="cls-3" cx="155.99" cy="85.88" r="6" transform="translate(68.93 241.22) rotate(-89.56)"/><circle class="cls-3" cx="196.29" cy="159.25" r="6" transform="translate(35.56 354.32) rotate(-89.56)"/><circle class="cls-3" cx="234" cy="159.25" r="6" transform="translate(72.97 392.03) rotate(-89.56)"/><circle class="cls-3" cx="170.05" cy="191.91" r="6" transform="translate(-23.15 360.49) rotate(-89.56)"/><circle class="cls-3" cx="170.05" cy="222.78" r="6" transform="translate(-54.02 391.13) rotate(-89.56)"/></g></svg>