<svg xmlns="http://www.w3.org/2000/svg" viewBox="0 0 400 400"><defs><style>.cls-1,.cls-2{fill:none;stroke:#00bed8;stroke-linecap:round;stroke-width:12px;}.cls-1{stroke-linejoin:round;opacity:0.7;}.cls-2{stroke-miterlimit:10;stroke-dasharray:0 24;}.cls-3{fill:#00bed8;}</style></defs><title>blue-icon</title><g id="Stroke"><path class="cls-1" d="M156.63,93.68H137s-14.22-.71-10,20.27l19.75,67.44s4.9,14.22,14.39,14.22h28.92s11.38,1.9,16.12-12.33l19.64-66.79c.4-1.36.87-2.71,1.35-4,1.68-4.69,5.14-18.77-13.56-18.77H195.19"/><path class="cls-1" d="M177.46,278v12.68c0,14.54,9.64,26.46,24.17,26.64l2.73.1c25.92,0,24.27-31.48,24.27-31.48V218.77a35.53,35.53,0,0,1,4.62-18.07C237,194.37,243.55,188,254.93,188c22.76,0,24,25.34,24,25.34v37.24"/><line class="cls-1" x1="177.46" y1="195.7" x2="177.46" y2="226.24"/><line class="cls-2" x1="177.46" y1="226.24" x2="177.46" y2="293.09"/><circle class="cls-1" cx="278.56" cy="270.76" r="20.15"/></g><g id="Fill"><circle class="cls-3" cx="157.01" cy="93.67" r="6"/><circle class="cls-3" cx="177.46" cy="195.7" r="6"/><circle class="cls-3" cx="195.02" cy="93.67" r="6"/><circle class="cls-3" cx="278.95" cy="250.61" r="5.79"/></g></svg>