<svg xmlns="http://www.w3.org/2000/svg" viewBox="0 0 400 400"><defs><style>.cls-1{fill:#00bed8;}.cls-2{opacity:0.7;}</style></defs><title>blue-icon</title><g id="Fill"><path class="cls-1" d="M188,220.08a6.18,6.18,0,0,1,6.16-6.16h0a6.18,6.18,0,0,1,6.16,6.16h0a6.18,6.18,0,0,1-6.16,6.16h0A6.18,6.18,0,0,1,188,220.08Z"/><path class="cls-1" d="M234.29,229a6.18,6.18,0,0,1,6.16-6.16h0A6.18,6.18,0,0,1,246.6,229h0a6.18,6.18,0,0,1-6.16,6.16h0A6.18,6.18,0,0,1,234.29,229Z"/><path class="cls-1" d="M215.69,276.44a6.18,6.18,0,0,1,6.16-6.16h0a6.18,6.18,0,0,1,6.16,6.16h0a6.18,6.18,0,0,1-6.16,6.16h0A6.18,6.18,0,0,1,215.69,276.44Z"/><path class="cls-1" d="M253.88,276.44a6.18,6.18,0,0,1,6.16-6.16h0a6.18,6.18,0,0,1,6.16,6.16h0A6.18,6.18,0,0,1,260,282.6h0A6.18,6.18,0,0,1,253.88,276.44Z"/><path class="cls-1" d="M188,205a6.18,6.18,0,0,1,6.16-6.16h0A6.18,6.18,0,0,1,200.3,205h0a6.18,6.18,0,0,1-6.16,6.16h0A6.18,6.18,0,0,1,188,205Z"/><path class="cls-1" d="M188,189.9a6.18,6.18,0,0,1,6.16-6.16h0a6.18,6.18,0,0,1,6.16,6.16h0a6.18,6.18,0,0,1-6.16,6.16h0A6.18,6.18,0,0,1,188,189.9Z"/><path class="cls-1" d="M188,174.81a6.18,6.18,0,0,1,6.16-6.16h0a6.18,6.18,0,0,1,6.16,6.16h0a6.18,6.18,0,0,1-6.16,6.16h0A6.18,6.18,0,0,1,188,174.81Z"/><path class="cls-1" d="M187.79,159.73a6.18,6.18,0,0,1,6.16-6.16h0a6.18,6.18,0,0,1,6.16,6.16h0a6.18,6.18,0,0,1-6.16,6.16h0A6,6,0,0,1,187.79,159.73Z"/><circle class="cls-1" cx="159.03" cy="136.79" r="6.25"/><circle class="cls-1" cx="140.21" cy="136.79" r="6.13"/><circle class="cls-1" cx="149.45" cy="184.03" r="6.13"/><g class="cls-2"><path class="cls-1" d="M157.8,190.53H141.48A13.47,13.47,0,0,1,127.93,177v-40a6.18,6.18,0,0,1,6.16-6.16H165.5a6.18,6.18,0,0,1,6.16,6.16v40A14.15,14.15,0,0,1,157.8,190.53ZM139.94,142.8v33.87a1.32,1.32,0,0,0,1.23,1.23h16.32a1.32,1.32,0,0,0,1.23-1.23V142.8Z"/></g><g class="cls-2"><path class="cls-1" d="M140.25,142.49a6.18,6.18,0,0,1-6.16-6.16v-23.4a6.18,6.18,0,0,1,6.16-6.16H159a6.18,6.18,0,0,1,6.16,6.16L165,136.29a6.18,6.18,0,0,1-6.31,6,5.67,5.67,0,0,1-5.69-6l-.16-17.2h-6.47v17.24A6.18,6.18,0,0,1,140.25,142.49Z"/></g><g class="cls-2"><path class="cls-1" d="M266.2,282.6h-50.5a6.18,6.18,0,0,1-6.16-6.16v-40a13.47,13.47,0,0,1,13.55-13.55H258.5A13.47,13.47,0,0,1,272,236.41v40A5.74,5.74,0,0,1,266.2,282.6Zm-44.34-12.32H260V236.41a1.32,1.32,0,0,0-1.23-1.23H223.08a1.32,1.32,0,0,0-1.23,1.23Z"/></g><g class="cls-2"><path class="cls-1" d="M259.73,306.31H221.85a6.18,6.18,0,0,1-6.16-6.16V276.44a6.16,6.16,0,0,1,12.32,0V294h25.87V276.44a6.16,6.16,0,0,1,12.32,0v24A6.41,6.41,0,0,1,259.73,306.31Z"/></g><g class="cls-2"><path class="cls-1" d="M240.14,234.87a6.18,6.18,0,0,1-6.16-6.16V129.86a16.79,16.79,0,0,0-4.62-11.7c-3.08-3.08-7.39-4.31-12.32-4.31h-1.85c-8.62.62-15.09,8-15.09,17.24v28.64a6.16,6.16,0,0,1-12.32,0V131.09c0-15.4,11.7-28.33,26.79-29.56h2.77a29.58,29.58,0,0,1,20.94,8,29.09,29.09,0,0,1,8.31,20.63v99.16A6.65,6.65,0,0,1,240.14,234.87Z"/></g><g class="cls-2"><path class="cls-1" d="M172,284.45c-12.32,0-19.4-6.47-23.4-11.7a28.38,28.38,0,0,1-5.24-16.94l0-71.75a6.16,6.16,0,1,1,12.32,0l0,71.44a17.58,17.58,0,0,0,2.77,9.85c3.39,4.62,7.7,6.77,13.86,6.47,14.47-.31,15.4-10.78,15.71-12.93v-38.8a6.16,6.16,0,1,1,12.32,0V259.2c0,8.31-5.85,24.64-27.41,24.94A1.13,1.13,0,0,1,172,284.45Z"/></g></g></svg>