<?xml version="1.0" encoding="utf-8"?>
<!-- Generator: Adobe Illustrator 19.1.0, SVG Export Plug-In . SVG Version: 6.00 Build 0)  -->
<svg version="1.1" id="Layer_3" xmlns="http://www.w3.org/2000/svg" xmlns:xlink="http://www.w3.org/1999/xlink" x="0px" y="0px"
	 viewBox="0 0 90 90" style="enable-background:new 0 0 90 90;" xml:space="preserve">
<style type="text/css">
	.st0{opacity:0.7;}
	.st1{fill:#00BDD9;}
</style>
<g class="st0">
	<path class="st1" d="M65.4,62.6c-1.1,0-2-0.9-2-2s0.9-2,2-2c5,0,9.1-4.1,9.1-9.1c0-4.9-3.8-8.9-8.8-9c-1.1,0-1.9-0.9-1.9-1.9
		c-0.3-6.8-5.8-12.1-12.6-12.1c-4.8,0-9.3,2.8-11.4,7.2c-0.3,0.5-0.7,0.9-1.3,1.1c-0.6,0.1-1.2,0-1.7-0.3c-1-0.7-2.2-1.1-3.4-1.1
		c-3.2,0-5.8,2.6-5.8,5.8c0,0.6,0.1,1.2,0.3,1.8c0.2,0.6,0.1,1.3-0.3,1.8c-0.4,0.5-1,0.8-1.6,0.8c-4.1,0.1-7.4,3.5-7.4,7.5
		c0,4.1,3.4,7.5,7.5,7.5c1.1,0,2,0.9,2,2s-0.9,2-2,2c-6.4,0-11.5-5.2-11.5-11.5c0-5.4,3.8-10.1,9-11.2c0-0.3,0-0.5,0-0.8
		c0-5.4,4.4-9.8,9.8-9.8c1.3,0,2.6,0.3,3.8,0.8c3-4.7,8.3-7.6,14-7.6c8.4,0,15.3,6.1,16.5,14.2c6.2,1,10.9,6.4,10.9,12.9
		C78.5,56.8,72.6,62.6,65.4,62.6z"/>
</g>
<g>
	<path class="st1" d="M58.7,60.6c0-1.1,0.9-2,2-2l0,0c1.1,0,2,0.9,2,2l0,0c0,1.1-0.9,2-2,2l0,0C59.6,62.6,58.7,61.7,58.7,60.6z
		 M53.7,60.6c0-1.1,0.9-2,2-2l0,0c1.1,0,2,0.9,2,2l0,0c0,1.1-0.9,2-2,2l0,0C54.6,62.6,53.7,61.7,53.7,60.6z M48.7,60.6
		c0-1.1,0.9-2,2-2l0,0c1.1,0,2,0.9,2,2l0,0c0,1.1-0.9,2-2,2l0,0C49.5,62.6,48.7,61.7,48.7,60.6z M43.6,60.6c0-1.1,0.9-2,2-2l0,0
		c1.1,0,2,0.9,2,2l0,0c0,1.1-0.9,2-2,2l0,0C44.5,62.6,43.6,61.7,43.6,60.6z M38.6,60.6c0-1.1,0.9-2,2-2l0,0c1.1,0,2,0.9,2,2l0,0
		c0,1.1-0.9,2-2,2l0,0C39.5,62.6,38.6,61.7,38.6,60.6z M33.5,60.6c0-1.1,0.9-2,2-2l0,0c1.1,0,2,0.9,2,2l0,0c0,1.1-0.9,2-2,2l0,0
		C34.4,62.6,33.5,61.7,33.5,60.6z M28.5,60.6c0-1.1,0.9-2,2-2l0,0c1.1,0,2,0.9,2,2l0,0c0,1.1-0.9,2-2,2l0,0
		C29.4,62.6,28.5,61.7,28.5,60.6z"/>
</g>
<g>
	<g class="st0">
		<path class="st1" d="M37.4,55.6c-0.2,0-0.4,0-0.5-0.1c-0.8-0.3-1.2-1.2-0.8-1.9l4.3-10.9c0.3-0.8,1.2-1.2,1.9-0.8
			c0.8,0.3,1.2,1.2,0.8,1.9l-4.3,10.9C38.6,55.2,38,55.6,37.4,55.6z"/>
	</g>
	<g class="st0">
		<path class="st1" d="M46.5,55.6c-0.6,0-1.1-0.3-1.4-0.9l-4.8-10.9c-0.3-0.8,0-1.6,0.8-2c0.8-0.3,1.6,0,2,0.8l4.8,10.9
			c0.3,0.8,0,1.6-0.8,2C47,55.5,46.7,55.6,46.5,55.6z"/>
	</g>
	<g class="st0">
		<path class="st1" d="M38.8,52c-0.8,0-1.5-0.7-1.5-1.5c0-0.8,0.7-1.5,1.5-1.5l6.1,0c0,0,0,0,0,0c0.8,0,1.5,0.7,1.5,1.5
			c0,0.8-0.7,1.5-1.5,1.5L38.8,52C38.8,52,38.8,52,38.8,52z"/>
	</g>
</g>
<g>
	<g class="st0">
		<path class="st1" d="M32.2,56.2c0,0-0.1,0-0.1,0c-1.8,0-4.6-1.3-5-3.5c-0.1-0.8,0.4-1.6,1.2-1.7c0.8-0.1,1.6,0.4,1.7,1.2
			c0.1,0.4,1.3,1.1,2.1,1.1c0.4,0,0.9-0.2,1.2-0.5c0.2-0.2,0.3-0.5,0.3-0.8l0-0.1l0-0.1c0-0.3,0-0.8-1.4-1.1c-0.1,0-0.2,0-0.2,0
			l-0.1,0c-3.7-0.4-4.2-2.7-4.2-4c0-2.7,1.8-4.3,4.7-4.3c2.8,0,4,1.7,4.2,2.7l-2.9,0.7l0,0.1c0-0.1-0.3-0.5-1.3-0.5
			c-1.7,0-1.7,0.7-1.7,1.3c0,0.4,0,0.8,1.5,1c0.2,0,0.4,0,0.5,0.1c3.6,0.7,3.9,3.1,3.9,4.1c0,1.1-0.4,2.1-1.2,2.9
			C34.7,55.7,33.4,56.2,32.2,56.2z"/>
	</g>
</g>
<g>
	<g class="st0">
		<path class="st1" d="M49.4,55.6c-0.2,0-0.4,0-0.5-0.1c-0.8-0.3-1.2-1.2-0.8-1.9l4.3-10.9c0.3-0.8,1.2-1.1,1.9-0.8
			c0.8,0.3,1.2,1.2,0.8,1.9l-4.3,10.9C50.6,55.2,50,55.6,49.4,55.6z"/>
	</g>
	<g class="st0">
		<path class="st1" d="M58.5,55.6c-0.6,0-1.1-0.3-1.4-0.9l-4.8-10.9c-0.3-0.8,0-1.6,0.8-2c0.8-0.3,1.6,0,2,0.8l4.8,10.9
			c0.3,0.8,0,1.6-0.8,2C59,55.5,58.8,55.6,58.5,55.6z"/>
	</g>
	<g class="st0">
		<path class="st1" d="M50.8,52c-0.8,0-1.5-0.7-1.5-1.5c0-0.8,0.7-1.5,1.5-1.5l6.1,0c0,0,0,0,0,0c0.8,0,1.5,0.7,1.5,1.5
			c0,0.8-0.7,1.5-1.5,1.5L50.8,52C50.8,52,50.8,52,50.8,52z"/>
	</g>
</g>
<g>
	<g class="st0">
		<path class="st1" d="M64.6,56.2c0,0-0.1,0-0.1,0h0c-1.8,0-4.6-1.3-5-3.5c-0.1-0.8,0.4-1.6,1.2-1.7c0.8-0.1,1.6,0.4,1.7,1.2
			c0.1,0.4,1.3,1.1,2.1,1.1c0.4,0,0.9-0.2,1.2-0.5c0.2-0.2,0.3-0.5,0.3-0.8l0-0.1l0-0.1c0-0.3,0-0.8-1.4-1.1c-0.1,0-0.2,0-0.2,0
			l-0.1,0c-3.7-0.4-4.2-2.7-4.2-4c0-2.7,1.8-4.3,4.7-4.3c2.8,0,4,1.7,4.2,2.7l-2.9,0.7l0,0.1c0-0.1-0.3-0.5-1.3-0.5
			c-1.7,0-1.7,0.7-1.7,1.3c0,0.4,0,0.8,1.5,1c0.2,0,0.4,0,0.5,0.1c3.6,0.7,3.9,3.1,3.9,4.1c0,1.1-0.4,2.1-1.2,2.9
			C67,55.7,65.8,56.2,64.6,56.2z"/>
	</g>
</g>
<g>
	<circle class="st1" cx="28.6" cy="52.3" r="1.4"/>
</g>
<g>
	<circle class="st1" cx="35.2" cy="45.7" r="1.4"/>
</g>
<g>
	<circle class="st1" cx="45" cy="50.6" r="1.4"/>
</g>
<g>
	<circle class="st1" cx="38.8" cy="50.7" r="1.4"/>
</g>
<g>
	<circle class="st1" cx="41.7" cy="43.2" r="1.4"/>
</g>
<g>
	<circle class="st1" cx="53.7" cy="43.1" r="1.4"/>
</g>
<g>
	<circle class="st1" cx="50.9" cy="50.6" r="1.4"/>
</g>
<g>
	<circle class="st1" cx="56.9" cy="50.5" r="1.4"/>
</g>
<g>
	<circle class="st1" cx="61" cy="52.3" r="1.4"/>
</g>
<g>
	<circle class="st1" cx="67.6" cy="45.5" r="1.4"/>
</g>
<g>
	<circle class="st1" cx="65.3" cy="60.7" r="1.9"/>
</g>
<g>
	<circle class="st1" cx="26.4" cy="60.7" r="1.9"/>
</g>
<g>
	<circle class="st1" cx="65.7" cy="38.5" r="1.9"/>
</g>
<g>
	<circle class="st1" cx="38.1" cy="32.7" r="1.9"/>
</g>
<g>
	<circle class="st1" cx="26.1" cy="41.5" r="1.9"/>
</g>
</svg>
