<svg xmlns="http://www.w3.org/2000/svg" viewBox="0 0 400 400"><defs><style>.cls-1,.cls-2{fill:none;stroke:#00bed8;stroke-width:12px;opacity:0.7;}.cls-1{stroke-linecap:round;stroke-linejoin:round;}.cls-2{stroke-miterlimit:10;}.cls-3,.cls-4{fill:#00bed8;}.cls-3{opacity:0.9;}</style></defs><title>blue-icon</title><g id="Stroke"><path class="cls-1" d="M103,284.12a45.36,45.36,0,0,1-.88-90.71,37.24,37.24,0,0,1,57.26-41.88A69.68,69.68,0,0,1,291.87,179a52.65,52.65,0,0,1-1.7,105.28"/><path class="cls-2" d="M224.15,223.13V208.21a24.54,24.54,0,0,0-24.54-24.54h.78a24.54,24.54,0,0,0-24.54,24.54v14.92"/><rect class="cls-2" x="163.68" y="229.13" width="72.64" height="54.87" rx="5.14" ry="5.14"/></g><g id="Fill"><circle class="cls-3" cx="100.82" cy="192.32" r="7.5"/><circle class="cls-3" cx="159.18" cy="150.27" r="7.5"/><circle class="cls-3" cx="292.74" cy="178.14" r="7.5"/><circle class="cls-3" cx="102.46" cy="283.86" r="6.79"/><circle class="cls-3" cx="175.85" cy="228.33" r="6.79"/><circle class="cls-3" cx="224.15" cy="228.34" r="6.79"/><circle class="cls-3" cx="290.61" cy="284.26" r="6.79"/><path class="cls-4" d="M260.94,284.27a6.76,6.76,0,0,1,6.75-6.76h0a6.76,6.76,0,0,1,6.75,6.76h0a6.74,6.74,0,0,1-6.75,6.74h0A6.75,6.75,0,0,1,260.94,284.27Zm-144,0a6.76,6.76,0,0,1,6.75-6.76h0a6.76,6.76,0,0,1,6.75,6.76h0a6.74,6.74,0,0,1-6.75,6.74h0A6.74,6.74,0,0,1,116.94,284.27Z"/></g></svg>