<svg xmlns="http://www.w3.org/2000/svg" viewBox="0 0 400 400"><defs><style>.cls-1{fill:none;stroke:#00bed8;stroke-linecap:round;stroke-linejoin:round;stroke-width:12px;opacity:0.7;}.cls-2{fill:#00bed8;}</style></defs><title>blue-icon</title><g id="Stroke"><rect class="cls-1" x="125.11" y="123.38" width="159.07" height="159.07" rx="5.79" ry="5.79"/><line class="cls-1" x1="151.82" y1="298.31" x2="151.82" y2="309.7"/><line class="cls-1" x1="186.51" y1="298.31" x2="186.51" y2="309.7"/><line class="cls-1" x1="222.12" y1="298.31" x2="222.12" y2="309.7"/><line class="cls-1" x1="254.35" y1="298.31" x2="254.35" y2="309.7"/><line class="cls-1" x1="301.75" y1="259.65" x2="313.14" y2="259.65"/><line class="cls-1" x1="301.75" y1="224.96" x2="313.14" y2="224.96"/><line class="cls-1" x1="301.75" y1="189.35" x2="313.14" y2="189.35"/><line class="cls-1" x1="301.75" y1="157.11" x2="313.14" y2="157.11"/><line class="cls-1" x1="95.86" y1="259.65" x2="107.25" y2="259.65"/><line class="cls-1" x1="95.86" y1="224.96" x2="107.25" y2="224.96"/><line class="cls-1" x1="95.86" y1="189.35" x2="107.25" y2="189.35"/><line class="cls-1" x1="95.86" y1="157.11" x2="107.25" y2="157.11"/><line class="cls-1" x1="255.91" y1="106.99" x2="255.91" y2="95.6"/><line class="cls-1" x1="221.22" y1="106.99" x2="221.22" y2="95.6"/><line class="cls-1" x1="185.61" y1="106.99" x2="185.61" y2="95.6"/><line class="cls-1" x1="153.38" y1="106.99" x2="153.38" y2="95.6"/></g><g id="Fill"><circle class="cls-2" cx="263.49" cy="123.38" r="6"/><circle class="cls-2" cx="148.07" cy="123.38" r="6"/><circle class="cls-2" cx="139.99" cy="281.69" r="6"/><circle class="cls-2" cx="268.96" cy="282.08" r="6"/><circle class="cls-2" cx="284.18" cy="143.33" r="6"/><circle class="cls-2" cx="284.18" cy="260.74" r="6"/><circle class="cls-2" cx="125.11" cy="261.97" r="6"/><circle class="cls-2" cx="125.11" cy="143.98" r="6"/></g></svg>