<svg id="Stroke" xmlns="http://www.w3.org/2000/svg" viewBox="0 0 400 400"><defs><style>.cls-1,.cls-2{fill:none;stroke:#00bed8;stroke-width:12px;}.cls-1{stroke-linecap:round;stroke-linejoin:round;opacity:0.7;}.cls-2{stroke-miterlimit:10;}</style></defs><title>blue-icon</title><path class="cls-1" d="M130.25,200.16A12.22,12.22,0,1,0,121.48,215,12.22,12.22,0,0,0,130.25,200.16Zm57.16,3.06H130.64M294.5,215a12.22,12.22,0,1,0-8.77-14.89A12.22,12.22,0,0,0,294.5,215Zm-9.16-11.82H228.56M211,125.48a12.22,12.22,0,1,0-14.89-8.77A12.22,12.22,0,0,0,211,125.48ZM208,182.64V125.87M196.16,289.72A12.22,12.22,0,1,0,211,281,12.22,12.22,0,0,0,196.16,289.72ZM208,280.56V223.79m-52.8-77.71a12.22,12.22,0,1,0-16.73,4.33A12.22,12.22,0,0,0,155.18,146.08Zm-1.89,2.45,40.15,40.14m67.36,84.08A12.22,12.22,0,1,0,265.12,256,12.22,12.22,0,0,0,260.8,272.75Zm-38.26-55,40.14,40.15m2.45-107.5a12.22,12.22,0,1,0-4.33-16.73A12.22,12.22,0,0,0,265.12,150.41Zm-2.45-1.89-40.14,40.15M138.45,256a12.22,12.22,0,1,0,16.73,4.33A12.22,12.22,0,0,0,138.45,256Zm14.84,1.88,40.15-40.14m1.17,1.09a20.58,20.58,0,1,1,29-2.26A20.58,20.58,0,0,1,194.61,218.85Z"/><path class="cls-2" d="M187.14,202.75a.07.07,0,1,1-.07.07A.07.07,0,0,1,187.14,202.75Zm-56.39.07a.07.07,0,1,0,.07-.07A.07.07,0,0,0,130.76,202.82Z"/><circle class="cls-2" cx="284.81" cy="202.82" r="0.07"/><circle class="cls-2" cx="228.5" cy="202.82" r="0.07"/><path class="cls-2" d="M207.89,182.14a.07.07,0,1,1-.07-.07A.07.07,0,0,1,207.89,182.14Zm-.07-56.39a.07.07,0,1,0,.07.07A.07.07,0,0,0,207.82,125.76Z"/><circle class="cls-2" cx="207.82" cy="279.81" r="0.07"/><circle class="cls-2" cx="207.82" cy="223.5" r="0.07"/><path class="cls-2" d="M222.49,188.25a.07.07,0,1,1,0-.1A.07.07,0,0,1,222.49,188.25Zm39.82-39.92a.07.07,0,1,0,0,.1A.07.07,0,0,0,262.31,148.33Z"/><circle class="cls-2" cx="153.38" cy="257.26" r="0.07" transform="translate(-136.98 183.79) rotate(-45)"/><circle class="cls-2" cx="193.2" cy="217.44" r="0.07" transform="translate(-97.17 200.29) rotate(-45)"/><path class="cls-2" d="M222.39,217.49a.07.07,0,1,1,.1,0A.07.07,0,0,1,222.39,217.49Zm39.92,39.82a.07.07,0,1,0-.1,0A.07.07,0,0,0,262.31,257.31Z"/><circle class="cls-2" cx="153.38" cy="148.37" r="0.07" transform="translate(-59.99 151.91) rotate(-45)"/><circle class="cls-2" cx="193.2" cy="188.2" r="0.07" transform="translate(-76.49 191.73) rotate(-45)"/></svg>