<svg xmlns="http://www.w3.org/2000/svg" viewBox="0 0 400 400"><defs><style>.cls-1,.cls-2,.cls-3{fill:none;stroke:#00bed8;stroke-width:11.97px;opacity:0.7;}.cls-1,.cls-2{stroke-miterlimit:10;}.cls-2,.cls-3{stroke-linecap:round;}.cls-3{stroke-linejoin:round;}.cls-4{fill:#00bed8;}</style></defs><title>blue-icon</title><g id="Stroke"><rect class="cls-1" x="33.04" y="96.78" width="86.18" height="126.68" rx="9.97" ry="9.97" transform="translate(82.87 -17.05) rotate(27.61)"/><rect class="cls-1" x="280.78" y="93.74" width="86.18" height="126.68" rx="9.97" ry="9.97" transform="translate(683.66 146.19) rotate(152.39)"/><path class="cls-2" d="M202.14,149.81s-25.3-16.07-74.76,5.94"/><path class="cls-3" d="M309.37,222.59s2.16,16.24-12.08,31.12l-75.65-68.59"/><path class="cls-3" d="M257.34,262.45s11.69,14,25.71,15.71,14.76-15.83,14.26-23.5"/><path class="cls-3" d="M237.3,284.33S249,298.31,263,300s14.76-15.83,14.26-23.5"/><path class="cls-3" d="M265.57,300.16s-3.91,24.6-24.17,21.62c-14.18-2.08-27.05-17.69-27.05-17.69"/><path class="cls-3" d="M158.74,305.12s58.94,52,83.34,16.91"/><path class="cls-3" d="M274.49,155.74s-29.49-13.21-50.93-11.6-65.65,36.71-75.87,52.31,4.36,27,19.33,19.33,47.32-28.52,47.32-28.52,12.12-6.51,37.06,3"/></g><g id="Fill"><circle class="cls-4" cx="101.2" cy="239.24" r="5.94"/><circle class="cls-4" cx="110.45" cy="252.41" r="5.94"/><circle class="cls-4" cx="120.28" cy="265.59" r="5.94"/><circle class="cls-4" cx="131.16" cy="278.77" r="5.94"/><circle class="cls-4" cx="144.41" cy="291.95" r="5.94"/><circle class="cls-4" cx="158.74" cy="305.12" r="5.94"/><circle class="cls-4" cx="127.38" cy="155.74" r="5.94"/><circle class="cls-4" cx="202.14" cy="149.81" r="5.94"/><circle class="cls-4" cx="274.49" cy="155.74" r="5.94"/><circle class="cls-4" cx="221.65" cy="185.13" r="5.94"/><circle class="cls-4" cx="251.4" cy="190.41" r="5.94"/><circle class="cls-4" cx="309.37" cy="222.59" r="5.94"/><circle class="cls-4" cx="325.96" cy="227.44" r="5.94"/><circle class="cls-4" cx="267.79" cy="114.78" r="5.94"/><circle class="cls-4" cx="339.37" cy="93.67" r="5.94"/><circle class="cls-4" cx="320.55" cy="87.43" r="5.94"/><circle class="cls-4" cx="262.89" cy="133.8" r="5.94"/><circle class="cls-4" cx="297.29" cy="253.71" r="5.94"/><circle class="cls-4" cx="277.38" cy="276.54" r="5.94"/><circle class="cls-4" cx="265.57" cy="300.16" r="5.94"/><circle class="cls-4" cx="257.34" cy="262.47" r="5.94"/><circle class="cls-4" cx="237.3" cy="284.22" r="5.94"/><circle class="cls-4" cx="242.08" cy="322.04" r="5.94"/><circle class="cls-4" cx="214.3" cy="304.05" r="5.94"/><circle class="cls-4" cx="385.33" cy="181.33" r="5.94"/><circle class="cls-4" cx="379.4" cy="199.36" r="5.94"/><circle class="cls-4" cx="14.67" cy="184.37" r="5.94"/><circle class="cls-4" cx="90.63" cy="225.62" r="5.94"/><circle class="cls-4" cx="20.6" cy="202.4" r="5.94"/><circle class="cls-4" cx="74.04" cy="230.48" r="5.94"/><circle class="cls-4" cx="132.21" cy="117.82" r="5.94"/><circle class="cls-4" cx="60.63" cy="96.7" r="5.94"/><circle class="cls-4" cx="79.45" cy="90.46" r="5.94"/><circle class="cls-4" cx="137.11" cy="136.83" r="5.94"/></g></svg>