<svg xmlns="http://www.w3.org/2000/svg" viewBox="0 0 400 400"><defs><style>.cls-1{opacity:0.7;}.cls-2{fill:#00bed8;}</style></defs><title>blue-icon</title><g id="Fill"><g class="cls-1"><path class="cls-2" d="M245.81,153.92H153.32a3,3,0,0,1-3.07-3.07V114a3,3,0,0,1,3.07-3.07h92.49a3,3,0,0,1,3.07,3.07v36.82A3.35,3.35,0,0,1,248,153C247.12,153.49,246.68,153.92,245.81,153.92Zm-89.86-6.57H242.3V116.67H155.95Z"/></g><circle class="cls-2" cx="230.9" cy="132.01" r="4.82"/><g class="cls-1"><path class="cls-2" d="M172.17,142.53a3,3,0,0,1-3.07-3.07v-14a3.07,3.07,0,1,1,6.14,0v14A3,3,0,0,1,172.17,142.53Z"/></g><g class="cls-1"><path class="cls-2" d="M192.77,142.53a3,3,0,0,1-3.07-3.07v-14a3.07,3.07,0,1,1,6.14,0v14A3,3,0,0,1,192.77,142.53Z"/></g><g class="cls-1"><path class="cls-2" d="M245.81,199.07H153.32a3,3,0,0,1-3.07-3.07V159.18a3,3,0,0,1,3.07-3.07h92.49a3,3,0,0,1,3.07,3.07V196a3.35,3.35,0,0,1-.88,2.19A2.41,2.41,0,0,1,245.81,199.07Zm-89.86-6.14H242.3V162.25H155.95Z"/></g><circle class="cls-2" cx="230.9" cy="177.59" r="4.82"/><g class="cls-1"><path class="cls-2" d="M172.17,188.11A3,3,0,0,1,169.1,185V171a3.07,3.07,0,0,1,6.14,0v14A3,3,0,0,1,172.17,188.11Z"/></g><g class="cls-1"><path class="cls-2" d="M192.77,188.11A3,3,0,0,1,189.7,185V171a3.07,3.07,0,0,1,6.14,0v14A3,3,0,0,1,192.77,188.11Z"/></g><g class="cls-1"><path class="cls-2" d="M245.81,244.66H153.32a3,3,0,0,1-3.07-3.07V204.77a3,3,0,0,1,3.07-3.07h92.49a3,3,0,0,1,3.07,3.07v36.82a3.35,3.35,0,0,1-.88,2.19C247.12,244.22,246.68,244.66,245.81,244.66Zm-89.86-6.14H242.3V207.84H155.95Z"/></g><circle class="cls-2" cx="230.9" cy="223.18" r="4.82"/><g class="cls-1"><path class="cls-2" d="M172.17,233.7a3,3,0,0,1-3.07-3.07v-14a3.07,3.07,0,0,1,6.14,0v14A3.29,3.29,0,0,1,172.17,233.7Z"/></g><g class="cls-1"><path class="cls-2" d="M192.77,233.7a3,3,0,0,1-3.07-3.07v-14a3.07,3.07,0,0,1,6.14,0v14A3.29,3.29,0,0,1,192.77,233.7Z"/></g><g class="cls-1"><path class="cls-2" d="M170,162.25a3,3,0,0,1-3.07-3.07v-8.77a3.07,3.07,0,0,1,6.14,0v8.77A3,3,0,0,1,170,162.25Z"/></g><g class="cls-1"><path class="cls-2" d="M226.08,162.25a3,3,0,0,1-3.07-3.07v-8.77a3.07,3.07,0,0,1,6.14,0v8.77A3,3,0,0,1,226.08,162.25Z"/></g><g class="cls-1"><path class="cls-2" d="M170,207.84a3,3,0,0,1-3.07-3.07V196a3.07,3.07,0,0,1,6.14,0v8.77A3,3,0,0,1,170,207.84Z"/></g><g class="cls-1"><path class="cls-2" d="M226.08,207.84a3,3,0,0,1-3.07-3.07V196a3.07,3.07,0,0,1,6.14,0v8.77A3,3,0,0,1,226.08,207.84Z"/></g><g class="cls-1"><path class="cls-2" d="M262.9,260a3,3,0,0,1-3.07-3.07V106.15a4.86,4.86,0,0,0-4.82-4.82H144.12a4.86,4.86,0,0,0-4.82,4.82V256.49a3.07,3.07,0,0,1-6.14,0V106.15a10.85,10.85,0,0,1,11-11H255a10.85,10.85,0,0,1,11,11V256.49A3.39,3.39,0,0,1,262.9,260Z"/></g><g class="cls-1"><path class="cls-2" d="M269.91,293.31H128.34a3,3,0,0,1-3.07-3.07V256.49a3,3,0,0,1,3.07-3.07H269.91a3,3,0,0,1,3.07,3.07v33.75A3,3,0,0,1,269.91,293.31ZM131.4,287.17H266.84V260H131.4Z"/></g><g class="cls-1"><path class="cls-2" d="M347.93,156.12H276a2.83,2.83,0,0,1-2.63-2.63V125a2.83,2.83,0,0,1,2.63-2.63h71.88a2.83,2.83,0,0,1,2.63,2.63v28.93a3.32,3.32,0,0,1-.88,1.75C349.25,156.12,348.81,156.12,347.93,156.12Zm-69.69-4.82H345.3V127.63H278.24Z"/></g><circle class="cls-2" cx="336.54" cy="139.46" r="3.94"/><g class="cls-1"><path class="cls-2" d="M291,147.35a2.83,2.83,0,0,1-2.63-2.63v-11a2.63,2.63,0,1,1,5.26,0v11.4A2.78,2.78,0,0,1,291,147.35Z"/></g><g class="cls-1"><path class="cls-2" d="M306.73,147.35a2.83,2.83,0,0,1-2.63-2.63v-11a2.63,2.63,0,1,1,5.26,0v11.4A2.45,2.45,0,0,1,306.73,147.35Z"/></g><g class="cls-1"><path class="cls-2" d="M347.93,191.62H276a2.83,2.83,0,0,1-2.63-2.63V160.5a2.83,2.83,0,0,1,2.63-2.63h71.88a2.83,2.83,0,0,1,2.63,2.63V189a3.32,3.32,0,0,1-.88,1.75A2.28,2.28,0,0,1,347.93,191.62Zm-69.69-4.82H345.3V163.13H278.24Z"/></g><circle class="cls-2" cx="336.54" cy="174.96" r="3.94"/><g class="cls-1"><path class="cls-2" d="M291,182.85a2.83,2.83,0,0,1-2.63-2.63v-11a2.63,2.63,0,0,1,5.26,0v11Q292.92,182.85,291,182.85Z"/></g><g class="cls-1"><path class="cls-2" d="M306.73,182.85a2.83,2.83,0,0,1-2.63-2.63v-11a2.63,2.63,0,1,1,5.26,0v11A2.53,2.53,0,0,1,306.73,182.85Z"/></g><g class="cls-1"><path class="cls-2" d="M347.93,227.12H276a2.83,2.83,0,0,1-2.63-2.63V196a2.83,2.83,0,0,1,2.63-2.63h71.88a2.83,2.83,0,0,1,2.63,2.63v28.49a3.32,3.32,0,0,1-.88,1.75A2.28,2.28,0,0,1,347.93,227.12Zm-69.69-5.26H345.3V198.19H278.24Z"/></g><circle class="cls-2" cx="336.54" cy="210.03" r="3.94"/><g class="cls-1"><path class="cls-2" d="M291,218.36a2.83,2.83,0,0,1-2.63-2.63v-11a2.63,2.63,0,0,1,5.26,0v11C293.14,217,292.27,218.36,291,218.36Z"/></g><g class="cls-1"><path class="cls-2" d="M306.73,218.36a2.83,2.83,0,0,1-2.63-2.63v-11a2.63,2.63,0,1,1,5.26,0v11A2.83,2.83,0,0,1,306.73,218.36Z"/></g><g class="cls-1"><path class="cls-2" d="M289.2,163.13a2.83,2.83,0,0,1-2.63-2.63v-6.57a2.63,2.63,0,0,1,5.26,0v6.57A2.83,2.83,0,0,1,289.2,163.13Z"/></g><g class="cls-1"><path class="cls-2" d="M332.59,163.13A2.83,2.83,0,0,1,330,160.5v-6.57a2.63,2.63,0,1,1,5.26,0v6.57A2.83,2.83,0,0,1,332.59,163.13Z"/></g><g class="cls-1"><path class="cls-2" d="M289.2,198.19a2.83,2.83,0,0,1-2.63-2.63V189a2.63,2.63,0,0,1,5.26,0v6.57A2.53,2.53,0,0,1,289.2,198.19Z"/></g><g class="cls-1"><path class="cls-2" d="M332.59,198.19a2.83,2.83,0,0,1-2.63-2.63V189a2.63,2.63,0,1,1,5.26,0v6.57A2.53,2.53,0,0,1,332.59,198.19Z"/></g><g class="cls-1"><path class="cls-2" d="M361.08,239.4a3,3,0,0,1-3.07-3.07V123.24a6.92,6.92,0,0,0-7-7H266V235.89a3.07,3.07,0,0,1-6.14,0V113.16a3,3,0,0,1,3.07-3.07h88.54a12.91,12.91,0,0,1,13.15,13.15V236.33A3.39,3.39,0,0,1,361.08,239.4Z"/></g><g class="cls-1"><path class="cls-2" d="M366.78,265.7H269.91a3.07,3.07,0,0,1,0-6.14h93.8V239.83H262.9a3.07,3.07,0,0,1,0-6.14H367.22a3,3,0,0,1,3.07,3.07v26.3C369.85,263.94,368.53,265.7,366.78,265.7Z"/></g><g class="cls-1"><path class="cls-2" d="M122.64,156.12H50.75a2.83,2.83,0,0,1-2.63-2.63V125a2.83,2.83,0,0,1,2.63-2.63h71.88a2.83,2.83,0,0,1,2.63,2.63v28.93a3.32,3.32,0,0,1-.88,1.75C124,156.12,123.51,156.12,122.64,156.12Zm-69.69-4.82H120V127.63H52.94Z"/></g><circle class="cls-2" cx="111.24" cy="139.46" r="3.94"/><g class="cls-1"><path class="cls-2" d="M65.66,147.35A2.83,2.83,0,0,1,63,144.72v-11a2.63,2.63,0,0,1,5.26,0v11.4A2.78,2.78,0,0,1,65.66,147.35Z"/></g><g class="cls-1"><path class="cls-2" d="M81.44,147.35a2.83,2.83,0,0,1-2.63-2.63v-11a2.63,2.63,0,0,1,5.26,0v11.4A2.45,2.45,0,0,1,81.44,147.35Z"/></g><g class="cls-1"><path class="cls-2" d="M122.64,191.62H50.75A2.83,2.83,0,0,1,48.12,189V160.5a2.83,2.83,0,0,1,2.63-2.63h71.88a2.83,2.83,0,0,1,2.63,2.63V189a3.32,3.32,0,0,1-.88,1.75A2.28,2.28,0,0,1,122.64,191.62ZM52.94,186.8H120V163.13H52.94Z"/></g><circle class="cls-2" cx="111.24" cy="174.96" r="3.94"/><g class="cls-1"><path class="cls-2" d="M65.66,182.85A2.83,2.83,0,0,1,63,180.22v-11a2.63,2.63,0,0,1,5.26,0v11Q67.63,182.85,65.66,182.85Z"/></g><g class="cls-1"><path class="cls-2" d="M81.44,182.85a2.83,2.83,0,0,1-2.63-2.63v-11a2.63,2.63,0,0,1,5.26,0v11A2.53,2.53,0,0,1,81.44,182.85Z"/></g><g class="cls-1"><path class="cls-2" d="M122.64,227.12H50.75a2.83,2.83,0,0,1-2.63-2.63V196a2.83,2.83,0,0,1,2.63-2.63h71.88a2.83,2.83,0,0,1,2.63,2.63v28.49a3.32,3.32,0,0,1-.88,1.75A2.28,2.28,0,0,1,122.64,227.12Zm-69.69-5.26H120V198.19H52.94Z"/></g><circle class="cls-2" cx="111.24" cy="210.03" r="3.94"/><g class="cls-1"><path class="cls-2" d="M65.66,218.36A2.83,2.83,0,0,1,63,215.73v-11a2.63,2.63,0,0,1,5.26,0v11C67.85,217,67,218.36,65.66,218.36Z"/></g><g class="cls-1"><path class="cls-2" d="M81.44,218.36a2.83,2.83,0,0,1-2.63-2.63v-11a2.63,2.63,0,0,1,5.26,0v11A2.83,2.83,0,0,1,81.44,218.36Z"/></g><g class="cls-1"><path class="cls-2" d="M63.9,163.13a2.83,2.83,0,0,1-2.63-2.63v-6.57a2.63,2.63,0,0,1,5.26,0v6.57A2.83,2.83,0,0,1,63.9,163.13Z"/></g><g class="cls-1"><path class="cls-2" d="M107.3,163.13a2.83,2.83,0,0,1-2.63-2.63v-6.57a2.63,2.63,0,0,1,5.26,0v6.57A2.53,2.53,0,0,1,107.3,163.13Z"/></g><g class="cls-1"><path class="cls-2" d="M63.9,198.19a2.83,2.83,0,0,1-2.63-2.63V189a2.63,2.63,0,0,1,5.26,0v6.57A2.53,2.53,0,0,1,63.9,198.19Z"/></g><g class="cls-1"><path class="cls-2" d="M107.3,198.19a2.83,2.83,0,0,1-2.63-2.63V189a2.63,2.63,0,0,1,5.26,0v6.57A2.32,2.32,0,0,1,107.3,198.19Z"/></g><g class="cls-1"><path class="cls-2" d="M37.6,239.4a3,3,0,0,1-3.07-3.07V120.61a10.67,10.67,0,0,1,10.52-10.52h91.17a3,3,0,0,1,3.07,3.07V236.33a3.07,3.07,0,0,1-6.14,0V116.23H44.62a4.39,4.39,0,0,0-4.38,4.38V236.33A2.47,2.47,0,0,1,37.6,239.4Z"/></g><g class="cls-1"><path class="cls-2" d="M128.34,265.7H31.91a3,3,0,0,1-3.07-3.07v-26.3a3,3,0,0,1,3.07-3.07H136.23a3.07,3.07,0,0,1,0,6.14H35.41v19.72h93.36a3,3,0,0,1,3.07,3.07A3.77,3.77,0,0,1,128.34,265.7Z"/></g><g class="cls-1"><path class="cls-2" d="M198.91,309.09H84.07A3,3,0,0,1,81,306v-41.2a3.07,3.07,0,0,1,6.14,0V303h108.7V290.68a3.07,3.07,0,0,1,6.14,0v15.78C202.41,307.77,200.66,309.09,198.91,309.09Z"/></g><g class="cls-1"><path class="cls-2" d="M314.62,309.09H198.91a3.07,3.07,0,1,1,0-6.14H311.55V264.82a3.07,3.07,0,1,1,6.14,0V306C318.13,307.77,316.37,309.09,314.62,309.09Z"/></g></g></svg>