<svg xmlns="http://www.w3.org/2000/svg" viewBox="0 0 400 400"><defs><style>.cls-1,.cls-2{fill:none;stroke:#00bed8;stroke-miterlimit:10;stroke-width:12px;}.cls-1{stroke-linecap:round;opacity:0.7;}.cls-3{fill:#00bed8;}</style></defs><title>blue-icon</title><g id="Stroke"><path class="cls-1" d="M217,164V122.77c0-9.66,4.75-16.77,11.59-16.77h56.92c6.84,0,13.48,7.11,13.48,16.77V318"/><path class="cls-1" d="M97,318V138.77c0-9.66,6.64-16.77,13.48-16.77h56.92c6.84,0,11.59,7.11,11.59,16.77V164"/><path class="cls-1" d="M241,318V175c0-6.62-6.48-11-13.1-11H170c-6.68,0-11,4.42-11,11.1V318"/><circle class="cls-2" cx="118.39" cy="144.28" r="0.07"/><circle class="cls-2" cx="138.39" cy="144.28" r="0.07"/><circle class="cls-2" cx="118.39" cy="164" r="0.07"/><circle class="cls-2" cx="138.39" cy="164" r="0.07"/><circle class="cls-2" cx="158.39" cy="144.28" r="0.07"/><circle class="cls-2" cx="179.39" cy="186.28" r="0.07"/><circle class="cls-2" cx="199.39" cy="186.28" r="0.07"/><circle class="cls-2" cx="219.39" cy="186.28" r="0.07"/><circle class="cls-2" cx="179.39" cy="206.28" r="0.07"/><circle class="cls-2" cx="199.39" cy="206.28" r="0.07"/><circle class="cls-2" cx="219.39" cy="206.28" r="0.07"/><circle class="cls-2" cx="239.39" cy="127.28" r="0.07"/><circle class="cls-2" cx="239.39" cy="147.28" r="0.07"/><circle class="cls-2" cx="259.39" cy="127.28" r="0.07"/><circle class="cls-2" cx="279.39" cy="127.28" r="0.07"/><circle class="cls-2" cx="259.39" cy="147.28" r="0.07"/><circle class="cls-2" cx="279.39" cy="147.28" r="0.07"/><circle class="cls-2" cx="259.39" cy="166.28" r="0.07"/><circle class="cls-2" cx="279.39" cy="166.28" r="0.07"/><circle class="cls-2" cx="259.39" cy="186.28" r="0.07"/><circle class="cls-2" cx="279.39" cy="186.28" r="0.07"/><line class="cls-1" x1="259" y1="106.25" x2="259" y2="62.25"/><line class="cls-1" x1="59.88" y1="318.45" x2="339.88" y2="318.45"/></g><g id="Fill"><circle class="cls-3" cx="59.88" cy="318.45" r="6"/><circle class="cls-3" cx="97" cy="318.45" r="6"/><circle class="cls-3" cx="159" cy="318.45" r="6"/><circle class="cls-3" cx="241" cy="318.45" r="6"/><circle class="cls-3" cx="299" cy="318.45" r="6"/><circle class="cls-3" cx="339.88" cy="318.45" r="6"/><circle class="cls-3" cx="179" cy="164" r="6"/><circle class="cls-3" cx="217" cy="164" r="6"/><circle class="cls-3" cx="259" cy="106.25" r="6"/><circle class="cls-3" cx="259" cy="62.25" r="6"/></g></svg>