<svg xmlns="http://www.w3.org/2000/svg" viewBox="0 0 400 400"><defs><style>.cls-1{fill:none;stroke:#00bed8;stroke-linecap:round;stroke-linejoin:round;stroke-width:12px;opacity:0.7;}.cls-2{fill:#00bed8;}</style></defs><title>blue-icon</title><g id="Stroke"><path class="cls-1" d="M199.63,129.6s40.8,1.33,64.32,45.72"/><line class="cls-1" x1="240.25" y1="168.54" x2="263.96" y2="175.55"/><line class="cls-1" x1="263.96" y1="175.55" x2="269.1" y2="153.1"/><path class="cls-1" d="M54.09,179.68V75.9s-1.54-23,61.23-23,61.56,20.6,61.56,20.6V180.9S163.15,202.29,112,200.76,54.09,179.68,54.09,179.68Z"/><path class="cls-1" d="M54.09,78.55s3,15.49,61.21,15.72c59.17.24,61.59-15.72,61.59-15.72"/><path class="cls-1" d="M54.09,113.88s3,15.49,61.21,15.72c59.17.24,61.59-15.72,61.59-15.72"/><path class="cls-1" d="M54.09,149.22s3,15.49,61.21,15.72c59.17.24,61.59-15.72,61.59-15.72"/><path class="cls-1" d="M228.38,323.91V220.13s-1.54-23,61.23-23,61.56,20.6,61.56,20.6V325.14S337.45,346.52,286.33,345,228.38,323.91,228.38,323.91Z"/><path class="cls-1" d="M228.38,222.78s3,15.49,61.21,15.72c59.17.24,61.59-15.72,61.59-15.72"/><path class="cls-1" d="M228.38,258.12s3,15.49,61.21,15.72c59.17.24,61.59-15.72,61.59-15.72"/><path class="cls-1" d="M228.38,293.45s3,15.49,61.21,15.72c59.17.24,61.59-15.72,61.59-15.72"/></g><g id="Fill"><circle class="cls-2" cx="117.01" cy="52.94" r="6"/><circle class="cls-2" cx="117.01" cy="200.83" r="6"/><circle class="cls-2" cx="54.1" cy="78.18" r="6"/><circle class="cls-2" cx="176.89" cy="78.55" r="6"/><circle class="cls-2" cx="54.1" cy="113.88" r="6"/><circle class="cls-2" cx="176.89" cy="114.25" r="6"/><circle class="cls-2" cx="54.1" cy="149.22" r="6"/><circle class="cls-2" cx="176.89" cy="149.59" r="6"/><circle class="cls-2" cx="54.1" cy="180.33" r="6"/><circle class="cls-2" cx="176.89" cy="180.71" r="6"/><circle class="cls-2" cx="291.3" cy="197.17" r="6"/><circle class="cls-2" cx="263.96" cy="175.55" r="6"/><circle class="cls-2" cx="269.1" cy="153.1" r="6"/><circle class="cls-2" cx="199.63" cy="129.6" r="6"/><circle class="cls-2" cx="240.25" cy="168.34" r="6"/><circle class="cls-2" cx="291.3" cy="345.07" r="6"/><circle class="cls-2" cx="228.39" cy="222.41" r="6"/><circle class="cls-2" cx="351.18" cy="222.78" r="6"/><circle class="cls-2" cx="228.39" cy="258.12" r="6"/><circle class="cls-2" cx="351.18" cy="258.49" r="6"/><circle class="cls-2" cx="228.39" cy="293.45" r="6"/><circle class="cls-2" cx="351.18" cy="293.82" r="6"/><circle class="cls-2" cx="228.39" cy="324.57" r="6"/><circle class="cls-2" cx="351.18" cy="324.94" r="6"/></g></svg>