<svg xmlns="http://www.w3.org/2000/svg" viewBox="0 0 400 400"><defs><style>.cls-1{fill:none;stroke:#00bed8;stroke-linecap:round;stroke-miterlimit:10;stroke-width:12px;opacity:0.7;}.cls-2{fill:#00bed8;}</style></defs><title>blue-icon</title><g id="Stroke"><path class="cls-1" d="M104.22,154.62C122,122.9,156.18,103,195.4,103c38.61,0,72.32,19.32,90.33,50.17"/><path class="cls-1" d="M132,92.85c17.4-12.46,40-17.55,63.39-17.55s47,5.09,64.37,17.54"/><path class="cls-1" d="M118.68,264.32c-15.89-55.25-2.79-101.08,37.14-122.77s88.54-6.23,109,34.42c6.58,13.06,14.24,27.2,11.22,51.08-2,15.55-14.23,27.24-29.15,25.89-11-1-25.2-11.69-25.55-31-.33-18.33-10.22-30.19-25.53-31.57s-26.49,10.88-29.91,26.56c-6.08,27.9,17.12,83,62,103.64"/><path class="cls-1" d="M172.35,313.74c-19.65-24.79-37.1-62.94-33-100.25,3.47-31.53,29.13-55.14,59.43-52.5s52.81,30.42,50.28,62"/><path class="cls-1" d="M258,290.9a60.64,60.64,0,0,1-12-.73c-27.14-4.18-57.62-39.76-53.27-72"/></g><g id="Fill"><circle class="cls-2" cx="285.73" cy="153.2" r="6"/><circle class="cls-2" cx="259.77" cy="92.85" r="6"/><circle class="cls-2" cx="132.01" cy="92.85" r="6"/><circle class="cls-2" cx="249.07" cy="223.08" r="6"/><circle class="cls-2" cx="257.99" cy="290.95" r="6"/><circle class="cls-2" cx="192.81" cy="218.18" r="6"/><circle class="cls-2" cx="118.72" cy="264.37" r="6"/><circle class="cls-2" cx="227.93" cy="320.56" r="6"/><circle class="cls-2" cx="172.43" cy="313.74" r="6"/><circle class="cls-2" cx="104.22" cy="154.62" r="6" transform="translate(-56.26 59.67) rotate(-25.41)"/><path class="cls-2" d="M282.08,275.25a6,6,0,0,1-2.17-8.2h0a6,6,0,0,1,8.21-2.17h0a6,6,0,0,1,2.16,8.21h0a6,6,0,0,1-5.19,3h0A6,6,0,0,1,282.08,275.25Zm10.67-21.48a6,6,0,0,1-3.85-7.56h0a6,6,0,0,1,7.56-3.85h0a6,6,0,0,1,3.85,7.56h0a6,6,0,0,1-5.71,4.14h0A6,6,0,0,1,292.74,253.77Zm6.57-23.1a6,6,0,0,1-4.94-6.88h0a6,6,0,0,1,6.89-5h0a6,6,0,0,1,5,6.9h0a6,6,0,0,1-5.92,5h0A5.43,5.43,0,0,1,299.32,230.67Zm-3.89-29h0a6,6,0,0,1,5.07-6.8h0a6,6,0,0,1,6.8,5.07h0a6,6,0,0,1-5.08,6.8h0a6.34,6.34,0,0,1-.87.06h0A6,6,0,0,1,295.42,201.72ZM289.34,180a6,6,0,0,1,3.41-7.77h0a6,6,0,0,1,7.77,3.41h0a6,6,0,0,1-3.41,7.77h0a6,6,0,0,1-2.18.42h0A6,6,0,0,1,289.34,180Z"/></g></svg>