<svg xmlns="http://www.w3.org/2000/svg" viewBox="0 0 400 400"><defs><style>.cls-1,.cls-2{fill:none;stroke:#00bed8;stroke-linecap:round;}.cls-1{stroke-linejoin:round;stroke-width:12px;opacity:0.7;}.cls-2{stroke-miterlimit:10;stroke-width:13.5px;stroke-dasharray:0 24;}.cls-3,.cls-4{fill:#00bed8;}.cls-3{opacity:0.9;}</style></defs><title>blue-icon</title><g id="Stroke"><path class="cls-1" d="M104.52,262.62a45.36,45.36,0,0,1-.88-90.71A37.24,37.24,0,0,1,160.9,130a69.68,69.68,0,0,1,132.47,27.46,52.65,52.65,0,0,1-1.7,105.28"/><line class="cls-2" x1="125.19" y1="262.76" x2="277.81" y2="262.76"/><line class="cls-1" x1="197.2" y1="265.13" x2="197.2" y2="298.56"/><line class="cls-1" x1="115.45" y1="298.56" x2="278.38" y2="298.56"/></g><g id="Fill"><circle class="cls-3" cx="102.32" cy="170.82" r="7.5"/><circle class="cls-3" cx="160.68" cy="128.77" r="7.5"/><circle class="cls-3" cx="294.24" cy="156.64" r="7.5"/><circle class="cls-3" cx="103.96" cy="262.36" r="6.75"/><circle class="cls-4" cx="197.25" cy="298.56" r="6" transform="translate(-159.62 272.4) rotate(-52.36)"/><circle class="cls-4" cx="278.38" cy="298.56" r="6" transform="translate(-128.05 336.64) rotate(-52.36)"/><circle class="cls-4" cx="115.45" cy="298.56" r="6" transform="translate(-191.47 207.63) rotate(-52.36)"/><circle class="cls-3" cx="292.11" cy="262.76" r="6.79"/></g></svg>