<svg xmlns="http://www.w3.org/2000/svg" viewBox="0 0 400 400"><defs><style>.cls-1,.cls-3{opacity:0.7;}.cls-2,.cls-3,.cls-4{fill:none;stroke:#00bed8;stroke-linecap:round;}.cls-2,.cls-3{stroke-linejoin:round;stroke-width:12px;}.cls-4{stroke-miterlimit:10;stroke-width:13px;stroke-dasharray:0 21;}.cls-5{fill:#00bed8;}</style></defs><title>blue-icon</title><g id="Stroke"><g class="cls-1"><path class="cls-2" d="M84,356V180a2,2,0,0,1,2-2H313a2,2,0,0,1,2,2V356"/></g><path class="cls-3" d="M112,178V135.15a91.32,91.32,0,0,1,91.31-91.39h0a91.72,91.72,0,0,1,87.34,64.45"/><line class="cls-4" x1="84.08" y1="356.13" x2="318.08" y2="356.13"/><line class="cls-4" x1="294.77" y1="177.86" x2="294.77" y2="126.42"/></g><g id="Fill"><circle class="cls-5" cx="314.16" cy="178.73" r="6.5"/><circle class="cls-5" cx="112" cy="177.53" r="6.5"/><circle class="cls-5" cx="203.31" cy="43.76" r="6.5"/><circle class="cls-5" cx="290.61" cy="107.93" r="6.5"/><circle class="cls-5" cx="84.83" cy="178.62" r="6.5"/></g></svg>