<svg xmlns="http://www.w3.org/2000/svg" viewBox="0 0 400 400"><defs><style>.cls-1{fill:none;stroke:#00bed8;stroke-linecap:round;stroke-miterlimit:10;stroke-width:12px;opacity:0.7;}.cls-2,.cls-3{fill:#00bed8;}.cls-2{opacity:0.9;}</style></defs><title>blue-icon</title><g id="Stroke"><path class="cls-1" d="M247.46,134a44.5,44.5,0,1,1-82,0"/><path class="cls-1" d="M111.71,290.73a94.89,94.89,0,1,1,189.77,0"/></g><g id="Fill"><circle class="cls-2" cx="111.71" cy="290.73" r="6"/><circle class="cls-2" cx="165.45" cy="134" r="6"/><circle class="cls-2" cx="247.44" cy="134" r="6"/><circle class="cls-2" cx="301.48" cy="290.73" r="6"/><path class="cls-3" d="M199.72,106.5a6.75,6.75,0,0,1,6.75-6.75h0a6.75,6.75,0,0,1,6.75,6.75h0a6.75,6.75,0,0,1-6.75,6.75h0A6.75,6.75,0,0,1,199.72,106.5Z"/><path class="cls-3" d="M225.26,118.25h0a6.75,6.75,0,0,1-2.48-9.22h0a6.74,6.74,0,0,1,9.21-2.48h0a6.73,6.73,0,0,1,2.48,9.21h0a6.73,6.73,0,0,1-5.85,3.39h0A6.64,6.64,0,0,1,225.26,118.25Z"/><path class="cls-3" d="M178.46,115.76a6.75,6.75,0,0,1,2.48-9.22h0a6.75,6.75,0,0,1,9.22,2.49h0a6.74,6.74,0,0,1-2.48,9.21h0a6.7,6.7,0,0,1-3.36.9h0A6.74,6.74,0,0,1,178.46,115.76Z"/></g></svg>