<svg xmlns="http://www.w3.org/2000/svg" viewBox="0 0 400 400"><defs><style>.cls-1,.cls-2{fill:#00bed8;}.cls-2{opacity:0.7;isolation:isolate;}</style></defs><title>blue-icon</title><g id="Fill"><path class="cls-1" d="M199.95,330.63a6.28,6.28,0,1,1,6.28-6.28A6.28,6.28,0,0,1,199.95,330.63Z"/><path class="cls-1" d="M199.95,98.6a6.28,6.28,0,1,1,6.28-6.28A6.28,6.28,0,0,1,199.95,98.6Z"/><path class="cls-1" d="M84,214.56a6.28,6.28,0,1,1,6.28-6.28A6.28,6.28,0,0,1,84,214.56Z"/><path class="cls-1" d="M316,214.56a6.28,6.28,0,1,1,6.28-6.28A6.28,6.28,0,0,1,316,214.56Z"/><path class="cls-1" d="M171.82,236a6.41,6.41,0,1,1,4.57-1.85A6.42,6.42,0,0,1,171.82,236Z"/><path class="cls-1" d="M226.18,189.53a6.41,6.41,0,1,1,4.57-1.85A6.42,6.42,0,0,1,226.18,189.53Z"/><path class="cls-1" d="M201.35,269.76a6.41,6.41,0,1,1,4.57-1.85A6.42,6.42,0,0,1,201.35,269.76Z"/><path class="cls-2" d="M201.29,269.61a6.36,6.36,0,0,1-6.4-6.31V253c-18.72-2.21-26.13-13.91-29-21.17a6.36,6.36,0,1,1,11.85-4.64c2.87,7.22,8.63,11.52,17.13,13V213.48c-14-2.94-26.49-11.28-26.49-25.05,0-15.45,12.52-23.42,26.49-25.27v-9.84a6.37,6.37,0,1,1,12.74,0v9.89a30.9,30.9,0,0,1,24.15,17,6.36,6.36,0,0,1-11.72,5,18.06,18.06,0,0,0-12.43-9v26.33c22.16,3.86,27,15.89,27,25.71,0,11-8.5,22.67-27,24.83V263.3A6.36,6.36,0,0,1,201.29,269.61Zm6.36-54.21v24.72c9.76-1.59,14.26-7,14.26-12,0-2.69,0-9.62-14.24-12.71ZM194.88,176c-8.83,1.41-13.86,5.85-13.86,12.47,0,4.55,4.41,9.56,13.86,12Z"/><path class="cls-1" d="M201.35,159.8a6.45,6.45,0,1,1,4.7-2.05h0A6.62,6.62,0,0,1,201.35,159.8Z"/><path class="cls-2" d="M199.95,330.52A122.24,122.24,0,1,1,322.19,208.28h0A122.37,122.37,0,0,1,199.95,330.52Zm0-232A109.79,109.79,0,1,0,309.73,208.28h0A109.92,109.92,0,0,0,199.95,98.49Z"/></g></svg>