<svg xmlns="http://www.w3.org/2000/svg" viewBox="0 0 400 400"><defs><style>.cls-1,.cls-2,.cls-3,.cls-4{fill:none;stroke:#00bed8;opacity:0.7;}.cls-1,.cls-2,.cls-3{stroke-miterlimit:10;}.cls-1,.cls-2{stroke-width:12px;}.cls-2,.cls-3,.cls-4{stroke-linecap:round;}.cls-3,.cls-4{stroke-width:10px;}.cls-4{stroke-linejoin:round;}.cls-5{fill:#00bed8;}</style></defs><title>blue-icon</title><g id="Stroke"><rect class="cls-1" x="95.2" y="75.79" width="210.44" height="249.48" rx="21.68" ry="21.68"/><line class="cls-2" x1="194.5" y1="122.34" x2="278.5" y2="122.34"/><line class="cls-2" x1="194.5" y1="199.84" x2="278.5" y2="199.84"/><line class="cls-3" x1="147.65" y1="129.7" x2="179.6" y2="97.74"/><line class="cls-4" x1="147.56" y1="129.7" x2="133.77" y2="115.91"/><path class="cls-4" d="M168.14,130.62a26.35,26.35,0,1,1-50.66-14.55q.15-.53.33-1.05m0,0a26.35,26.35,0,0,1,32.28-17"/><line class="cls-3" x1="147.31" y1="206.7" x2="179.27" y2="174.74"/><line class="cls-4" x1="147.56" y1="206.7" x2="133.77" y2="192.91"/><path class="cls-4" d="M168.14,207.62a26.35,26.35,0,0,1-50.66-14.55q.15-.53.33-1.05m0,0a26.35,26.35,0,0,1,32.28-17"/><line class="cls-3" x1="148.14" y1="283.7" x2="180.1" y2="251.74"/><line class="cls-4" x1="147.56" y1="283.7" x2="133.77" y2="269.91"/><path class="cls-4" d="M168.14,284.62a26.35,26.35,0,0,1-50.66-14.55q.15-.53.33-1.05m0,0a26.35,26.35,0,0,1,32.28-17"/><line class="cls-2" x1="194.5" y1="277.34" x2="278.5" y2="277.34"/></g><g id="Fill"><circle class="cls-5" cx="95.2" cy="96.9" r="6"/><circle class="cls-5" cx="305.64" cy="96.9" r="6"/><circle class="cls-5" cx="284.47" cy="75.79" r="6"/><circle class="cls-5" cx="116.27" cy="75.79" r="6"/><circle class="cls-5" cx="305.64" cy="304.17" r="6"/><circle class="cls-5" cx="95.2" cy="304.17" r="6"/><circle class="cls-5" cx="116.37" cy="325.29" r="6"/><circle class="cls-5" cx="284.57" cy="325.29" r="6"/><circle class="cls-5" cx="194.5" cy="122.34" r="6.5"/><circle class="cls-5" cx="278.5" cy="122.34" r="6.5"/><circle class="cls-5" cx="194.5" cy="199.84" r="6.5"/><circle class="cls-5" cx="278.5" cy="199.84" r="6.5"/><circle class="cls-5" cx="194.5" cy="277.34" r="6.5"/><circle class="cls-5" cx="278.5" cy="277.34" r="6.5"/><circle class="cls-5" cx="179.52" cy="97.74" r="6"/><circle class="cls-5" cx="147.56" cy="129.7" r="6"/><circle class="cls-5" cx="179.52" cy="174.74" r="6"/><circle class="cls-5" cx="147.56" cy="206.7" r="6"/><circle class="cls-5" cx="180.1" cy="251.74" r="6"/><circle class="cls-5" cx="147.56" cy="283.7" r="6"/></g></svg>