<svg xmlns="http://www.w3.org/2000/svg" viewBox="0 0 400 400"><defs><style>.cls-1,.cls-2{fill:none;stroke:#00bed8;stroke-linecap:round;stroke-width:12px;opacity:0.7;}.cls-1{stroke-linejoin:round;}.cls-2{stroke-miterlimit:10;}.cls-3{fill:#00bed8;}</style></defs><title>blue-icon</title><g id="Stroke"><polyline class="cls-1" points="120.55 201.86 188.36 201.83 203.75 183.75 224.4 226.09 240.25 160.04 253.4 201.86 289.69 201.86"/><path class="cls-1" d="M289.85,201.83l1.45-1.5c23.65-24.51,26.41-61.75,6.14-82.75s-56.2-18.15-79.85,6.37l-11.77,12.19L194.22,124c-23.51-24.66-59.32-27.43-79.59-6.18S97,176.62,120.51,201.27L131.68,213l73.27,76.84"/><line class="cls-2" x1="204.95" y1="289.82" x2="289.85" y2="201.83"/></g><g id="Fill"><circle class="cls-3" cx="188.36" cy="201.83" r="6"/><circle class="cls-3" cx="253.3" cy="201.83" r="6"/><circle class="cls-3" cx="289.85" cy="201.83" r="6"/><circle class="cls-3" cx="224.57" cy="226.09" r="6"/><circle class="cls-3" cx="240.31" cy="160.04" r="6"/><circle class="cls-3" cx="120.55" cy="202.06" r="6"/><circle class="cls-3" cx="203.62" cy="183.83" r="6"/><circle class="cls-3" cx="205.83" cy="135.96" r="6"/><circle class="cls-3" cx="267.41" cy="103.61" r="6"/><circle class="cls-3" cx="309.66" cy="166.04" r="6"/><circle class="cls-3" cx="102.37" cy="166.04" r="6"/><circle class="cls-3" cx="144.28" cy="103.61" r="6"/></g></svg>