<svg xmlns="http://www.w3.org/2000/svg" viewBox="0 0 400 400"><defs><style>.cls-1,.cls-2{fill:none;stroke:#00bed8;stroke-miterlimit:10;stroke-width:12px;}.cls-1{stroke-linecap:round;opacity:0.7;}.cls-3{fill:#00bed8;}</style></defs><title>blue-icon</title><g id="Stroke"><path class="cls-1" d="M253,305V123c0-8.42-8.05-14-15.94-14h-69c-8,0-13.08,5.68-13.08,14.18V305"/><path class="cls-1" d="M218,304.5V270.87c0-1.56-1.79-2.37-4.22-2.37H192.53c-2.45,0-4.53.82-4.53,2.39V304.5"/><line class="cls-1" x1="155" y1="305" x2="253" y2="305"/><circle class="cls-2" cx="183.39" cy="136.28" r="0.07"/><circle class="cls-2" cx="203.39" cy="136.28" r="0.07"/><circle class="cls-2" cx="223.39" cy="136.28" r="0.07"/><circle class="cls-2" cx="223.39" cy="158.28" r="0.07"/><circle class="cls-2" cx="223.72" cy="180.28" r="0.07"/><circle class="cls-2" cx="183.39" cy="158.28" r="0.07"/><circle class="cls-2" cx="203.39" cy="158.28" r="0.07"/><circle class="cls-2" cx="203.72" cy="180.28" r="0.07"/><circle class="cls-2" cx="183.72" cy="180.28" r="0.07"/></g><g id="Fill"><circle class="cls-3" cx="253" cy="305" r="6"/><circle class="cls-3" cx="218" cy="305" r="6"/><circle class="cls-3" cx="217.5" cy="269.75" r="6"/><circle class="cls-3" cx="188.63" cy="269.75" r="6"/><circle class="cls-3" cx="188" cy="305" r="6"/><circle class="cls-3" cx="155" cy="305" r="6"/><circle class="cls-3" cx="247.91" cy="112.69" r="6"/><circle class="cls-3" cx="158.77" cy="112.69" r="6"/></g></svg>