<svg xmlns="http://www.w3.org/2000/svg" viewBox="0 0 400 400"><defs><style>.cls-1,.cls-2,.cls-3{fill:none;stroke:#00bed8;stroke-miterlimit:10;stroke-width:12px;}.cls-1,.cls-2{stroke-linecap:round;}.cls-1,.cls-3{opacity:0.7;}.cls-2{stroke-dasharray:0 24;}.cls-4{fill:#00bed8;}</style></defs><title>blue-icon</title><g id="Stroke"><path class="cls-1" d="M201.52,102.19c54.27,0,97.31,42.45,97.31,94.81a94.81,94.81,0,1,1-175.93-49.1"/><path class="cls-2" d="M137.36,131.12s31.71-30.65,63.18-28.53"/><path class="cls-3" d="M150.44,210.41c4.83,23.7,23.15,41.74,45,45,26.89,4,54.84-15,61.72-45"/></g><g id="Fill"><circle class="cls-4" cx="201.52" cy="102.19" r="6"/><circle class="cls-4" cx="122.88" cy="148.28" r="6"/><circle class="cls-4" cx="203.78" cy="291.81" r="6"/><circle class="cls-4" cx="298.84" cy="202.18" r="6"/><circle class="cls-4" cx="109.22" cy="202.18" r="6"/><circle class="cls-4" cx="172.6" cy="174.59" r="6"/><circle class="cls-4" cx="234.42" cy="174.59" r="6"/><circle class="cls-4" cx="257.17" cy="210.41" r="6"/><circle class="cls-4" cx="150.44" cy="210.41" r="6"/></g></svg>