<svg xmlns="http://www.w3.org/2000/svg" viewBox="0 0 400 400"><defs><style>.cls-1{fill:none;stroke:#00bed8;stroke-linecap:round;stroke-linejoin:round;stroke-width:12px;opacity:0.7;}.cls-2{fill:#00bed8;}</style></defs><title>blue-icon</title><g id="Stroke"><path class="cls-1" d="M110.17,278.32V130.09S108,97.3,197.62,97.3s87.93,29.42,87.93,29.42V280.07s-19.62,30.54-92.62,28.35S110.17,278.32,110.17,278.32Z"/><path class="cls-1" d="M110.16,133.87s4.34,22.12,87.42,22.45c84.52.34,88-22.45,88-22.45"/><path class="cls-1" d="M110.16,184.34s4.34,22.12,87.42,22.45c84.52.34,88-22.45,88-22.45"/><path class="cls-1" d="M110.16,234.81s4.34,22.12,87.42,22.45c84.52.34,88-22.45,88-22.45"/></g><g id="Fill"><circle class="cls-2" cx="200.03" cy="97.3" r="6"/><circle class="cls-2" cx="200.03" cy="308.53" r="6"/><circle class="cls-2" cx="110.18" cy="133.35" r="6"/><circle class="cls-2" cx="285.56" cy="133.88" r="6"/><circle class="cls-2" cx="110.18" cy="184.34" r="6"/><circle class="cls-2" cx="285.56" cy="184.87" r="6"/><circle class="cls-2" cx="110.18" cy="234.81" r="6"/><circle class="cls-2" cx="285.56" cy="235.34" r="6"/><circle class="cls-2" cx="110.18" cy="279.25" r="6"/><circle class="cls-2" cx="285.56" cy="279.78" r="6"/></g></svg>