<svg xmlns="http://www.w3.org/2000/svg" viewBox="0 0 400 400"><defs><style>.cls-1{fill:none;stroke:#00bed8;stroke-linecap:round;stroke-linejoin:round;stroke-width:12px;opacity:0.7;}.cls-2{fill:#00bed8;}</style></defs><title>blue-icon</title><g id="Stroke"><polygon class="cls-1" points="225.03 121.8 241.81 130.96 266.68 116.48 281.42 130.96 269.57 156.37 275.64 174.99 303.4 183.56 303.4 205.13 277.38 213.1 268.7 231.53 280.85 258.02 267.25 271.61 244.41 259.79 221.85 270.43 214.91 297.02 196.7 297.02 186.29 268.07 169.05 260.38 142.04 274.86 127.58 259.79 139.73 234.08 131.05 214.88 105.32 206.75 105.32 185.92 132.21 176.76 139.73 156.66 126.43 131.55 141.75 116.48 164.02 129.18 186.57 119.73 194.67 92.84 214.91 92.84 225.03 121.8"/><ellipse class="cls-1" cx="204.23" cy="194.14" rx="33.49" ry="34.23"/></g><g id="Fill"><circle class="cls-2" cx="214.71" cy="93.18" r="6.52"/><circle class="cls-2" cx="194.92" cy="93.18" r="6.52"/><circle class="cls-2" cx="141.78" cy="116.74" r="6.52"/><circle class="cls-2" cx="126.73" cy="132.64" r="6.52"/><circle class="cls-2" cx="266.09" cy="116.74" r="6.52"/><circle class="cls-2" cx="281.54" cy="131.17" r="6.52"/><circle class="cls-2" cx="303.4" cy="184.48" r="6.52"/><circle class="cls-2" cx="303.4" cy="204.82" r="6.52"/><circle class="cls-2" cx="280.34" cy="257.88" r="6.52"/><circle class="cls-2" cx="267.29" cy="270.93" r="6.52"/><circle class="cls-2" cx="214.67" cy="297.03" r="6.52"/><circle class="cls-2" cx="197.71" cy="297.03" r="6.52"/><circle class="cls-2" cx="141.78" cy="274.1" r="6.52"/><circle class="cls-2" cx="127.76" cy="259.17" r="6.52"/><circle class="cls-2" cx="105.32" cy="206.54" r="6.52"/><circle class="cls-2" cx="105.32" cy="186.45" r="6.52"/></g></svg>