<svg xmlns="http://www.w3.org/2000/svg" viewBox="0 0 400 400"><defs><style>.cls-1,.cls-2{fill:none;stroke:#00bed8;}.cls-1,.cls-2,.cls-4{stroke-linecap:round;}.cls-1{stroke-linejoin:round;stroke-width:12px;}.cls-1,.cls-2,.cls-4,.cls-5{opacity:0.7;}.cls-2,.cls-4{stroke-miterlimit:10;stroke-width:12.05px;}.cls-3,.cls-4,.cls-5,.cls-6{fill:#00bed8;}.cls-4{stroke:#fff;}.cls-6{opacity:0.9;}</style></defs><title>blue-icon</title><g id="Stroke"><line class="cls-1" x1="198.56" y1="52.43" x2="198.56" y2="86.58"/><line class="cls-1" x1="265.02" y1="69.51" x2="247.27" y2="98.87"/><line class="cls-1" x1="311" y1="118.9" x2="287.33" y2="137.56"/><line class="cls-1" x1="328.3" y1="182.18" x2="299.17" y2="182.18"/><line class="cls-1" x1="311" y1="245.91" x2="287.33" y2="232.71"/><line class="cls-1" x1="117.98" y1="229.07" x2="94.31" y2="248.64"/><line class="cls-1" x1="106.14" y1="182.18" x2="72.46" y2="182.18"/><line class="cls-1" x1="117.98" y1="137.56" x2="92.03" y2="118.9"/><line class="cls-1" x1="153.03" y1="98.87" x2="136.64" y2="73.83"/><line class="cls-2" x1="178.96" y1="295.06" x2="229.27" y2="295.06"/><path class="cls-2" d="M200.52,142.73c-8.63-1.51-26,4.87-31,21.89"/><line class="cls-2" x1="178.96" y1="312.66" x2="229.27" y2="312.66"/><path class="cls-2" d="M179,255s-39.78-39.93-39.78-71.66,25.05-64.72,64.81-64.72,65.19,34.49,65.19,58.53c0,41-36.2,78.83-39.91,78.83"/><line class="cls-2" x1="212.49" y1="277.62" x2="212.49" y2="240.86"/><line class="cls-2" x1="195.72" y1="277.46" x2="195.72" y2="240.69"/><line class="cls-2" x1="178.96" y1="277.46" x2="229.27" y2="277.46"/></g><g id="Fill"><circle class="cls-3" cx="287.33" cy="232.71" r="6"/><circle class="cls-3" cx="311" cy="245.91" r="6"/><circle class="cls-3" cx="299.17" cy="182.18" r="6"/><circle class="cls-3" cx="328.3" cy="182.18" r="6"/><circle class="cls-3" cx="287.33" cy="137.56" r="6"/><circle class="cls-3" cx="311" cy="118.9" r="6"/><circle class="cls-3" cx="247.27" cy="98.87" r="6"/><circle class="cls-3" cx="265.02" cy="69.51" r="6"/><circle class="cls-3" cx="198.18" cy="86.35" r="6"/><circle class="cls-3" cx="198.56" cy="52.43" r="6"/><circle class="cls-3" cx="136.64" cy="73.83" r="6"/><circle class="cls-3" cx="153.03" cy="98.87" r="6"/><circle class="cls-3" cx="117.98" cy="137.56" r="6"/><circle class="cls-3" cx="92.03" cy="118.9" r="6"/><circle class="cls-3" cx="106.14" cy="182.18" r="6"/><circle class="cls-3" cx="72.46" cy="182.18" r="6"/><circle class="cls-3" cx="117.98" cy="229.07" r="6"/><circle class="cls-3" cx="94.31" cy="248.64" r="6"/><line class="cls-4" x1="178.96" y1="277.32" x2="178.96" y2="255.01"/><line class="cls-4" x1="229.27" y1="277.46" x2="229.27" y2="255.99"/><path id="_Path_" data-name="&lt;Path&gt;" class="cls-5" d="M185.21,323.93c1.53,6.18,8.78,10.87,17.51,10.87h3.71c8.73,0,16-4.69,17.51-10.87Z"/><circle class="cls-3" cx="178.84" cy="255.22" r="6.2"/><circle class="cls-3" cx="178.96" cy="277.46" r="6.2"/><circle class="cls-3" cx="229.27" cy="277.46" r="6.2"/><circle class="cls-3" cx="178.96" cy="295.04" r="6.2"/><circle class="cls-3" cx="229.27" cy="295.04" r="6.2"/><circle class="cls-3" cx="179.02" cy="312.66" r="6.2"/><circle class="cls-3" cx="229.33" cy="312.66" r="6.2"/><circle class="cls-3" cx="229.5" cy="255.99" r="6.2"/><circle class="cls-6" cx="195.72" cy="241.18" r="6.38"/><circle class="cls-6" cx="212.68" cy="241.18" r="6.38"/></g></svg>