<svg xmlns="http://www.w3.org/2000/svg" viewBox="0 0 400 400"><defs><style>.cls-1{opacity:0.7;}.cls-2{fill:#43f377;}.cls-3{opacity:0.9;}</style></defs><title>green-icon</title><g id="Fill"><g class="cls-1"><path class="cls-2" d="M62.86,195.12a5.62,5.62,0,0,1-5.62-5.62h0V105.06A25.75,25.75,0,0,1,83,79.31H276.07a25.75,25.75,0,0,1,25.75,25.75v52.35a5.62,5.62,0,0,1-11.24,0h0V105.06A14.46,14.46,0,0,0,276.11,90.6H83a14.46,14.46,0,0,0-14.46,14.46V189.5a5.62,5.62,0,0,1-5.62,5.62Z"/></g><g class="cls-1"><path class="cls-2" d="M220.68,301.62H82.94A25.75,25.75,0,0,1,57.2,275.88V266a5.62,5.62,0,0,1,11.24,0v9.91a14.46,14.46,0,0,0,14.42,14.5H220.68a5.62,5.62,0,0,1,0,11.2Z"/></g><g class="cls-1"><path class="cls-2" d="M296.15,131.92H62.86a5.62,5.62,0,1,1,0-11.24H296.15a5.62,5.62,0,0,1,0,11.24Z"/></g><g class="cls-3"><circle class="cls-2" cx="219.48" cy="105.57" r="5.62"/></g><g class="cls-3"><circle class="cls-2" cx="296.15" cy="106.26" r="5.62"/></g><g class="cls-3"><circle class="cls-2" cx="296.15" cy="157.41" r="5.62"/></g><g class="cls-3"><circle class="cls-2" cx="220.68" cy="296" r="5.62"/></g><g class="cls-3"><circle class="cls-2" cx="276.54" cy="85.02" r="5.62"/></g><g class="cls-3"><circle class="cls-2" cx="249.34" cy="105.57" r="5.62"/></g><g class="cls-3"><circle class="cls-2" cx="276.54" cy="105.57" r="5.62"/></g><g class="cls-1"><path class="cls-2" d="M296.07,278.92a29.52,29.52,0,1,1,29-30q0,.26,0,.51a29.26,29.26,0,0,1-29,29.52Zm0-47.76A18.28,18.28,0,1,0,313.82,250q0-.25,0-.51a18,18,0,0,0-17.76-18.28Z"/></g><g class="cls-1"><path class="cls-2" d="M303.53,326.85H290.66a5.62,5.62,0,0,1-5.28-3.73l-6.44-17.94-7.34-3.26-16.43,8.8a5.62,5.62,0,0,1-6.69-1.07l-10-10.64a5.62,5.62,0,0,1-1-6.31l7.38-15.58-3.95-8.58-15.58-4.93a5.62,5.62,0,0,1-3.95-5.36V243.7a5.62,5.62,0,0,1,3.82-5.32l16.26-5.54,3.43-9.14-8.11-15.32a5.62,5.62,0,0,1,1-6.65l10.56-10.51a5.62,5.62,0,0,1,6.74-.86l13.13,7.51L279,193.58l5-16.43a5.62,5.62,0,0,1,5.36-4h14.12a5.62,5.62,0,0,1,5.32,3.78l6.35,18.15,7,3.82,14.63-8.58a5.62,5.62,0,0,1,6.78.86l10.3,10.08a5.62,5.62,0,0,1,1.16,6.39l-7.34,15.7,2.66,8.11L367,236.57a5.62,5.62,0,0,1,3.95,5.36V257a5.62,5.62,0,0,1-4,5.36l-15.79,4.85-4.08,8.37,7.38,16.09a5.62,5.62,0,0,1-1.12,6.31L344,307.59a5.62,5.62,0,0,1-6.56,1l-13.47-7-10.86,5.11-4.29,16A5.62,5.62,0,0,1,303.53,326.85ZM295,315.61h4.29L303,301.24a5.62,5.62,0,0,1,3-3.65l15.75-7.42a5.62,5.62,0,0,1,5,0L339,296.52l3.78-3.73L336,277.85a5.62,5.62,0,0,1,0-4.72L342,260.26a5.62,5.62,0,0,1,3.43-3l14.2-4.29v-6.78l-15.4-4.76a5.62,5.62,0,0,1-3.69-3.65l-4.29-12.87a5.62,5.62,0,0,1,.26-4.29l6.61-14.12-4.29-4.29-13.73,8a5.62,5.62,0,0,1-5.54,0l-11.71-6.39a5.58,5.58,0,0,1-2.62-3.09l-5.75-16.43h-5.92L289.29,199a5.62,5.62,0,0,1-3.22,3.56l-15.75,6.61a5.62,5.62,0,0,1-5.11-.3l-11.84-6.78-4.68,4.59L256,220.53a5.62,5.62,0,0,1,.3,4.59l-5.23,14a5.62,5.62,0,0,1-3.43,3.35l-15,5v6.39l14,4.29a5.62,5.62,0,0,1,3.43,3l6.05,13.39a5.62,5.62,0,0,1,0,4.72l-6.82,14.46,4.29,4.63,15.1-8.07a5.62,5.62,0,0,1,4.93,0l12,5.36a5.62,5.62,0,0,1,3,3.22Z"/></g><path class="cls-2" d="M57.24,265.45a5.62,5.62,0,0,1,5.62-5.62h0a5.62,5.62,0,0,1,5.62,5.62h0a5.66,5.66,0,0,1-5.62,5.62h0A5.66,5.66,0,0,1,57.24,265.45Zm0-18.75a5.62,5.62,0,0,1,5.62-5.62h0a5.62,5.62,0,0,1,5.62,5.62h0a5.62,5.62,0,0,1-5.62,5.62h0a5.62,5.62,0,0,1-5.62-5.62Zm0-18.71a5.62,5.62,0,0,1,5.62-5.62h0A5.62,5.62,0,0,1,68.48,228h0a5.62,5.62,0,0,1-5.62,5.62h0A5.62,5.62,0,0,1,57.24,228Zm0-18.75a5.62,5.62,0,0,1,5.62-5.62h0a5.62,5.62,0,0,1,5.62,5.62h0a5.62,5.62,0,0,1-5.62,5.62h0a5.62,5.62,0,0,1-5.62-5.62Zm0-18.75a5.62,5.62,0,0,1,5.62-5.62h0a5.62,5.62,0,0,1,5.62,5.62h0A5.62,5.62,0,0,1,62.86,196h0A5.62,5.62,0,0,1,57.24,190.49Z"/></g></svg>